<?xml version="1.0" encoding="UTF-8" standalone="no"?>
<!-- Created with Inkscape (http://www.inkscape.org/) -->

<svg
   width="24.368246mm"
   height="24.42996mm"
   viewBox="0 0 24.368246 24.42996"
   version="1.1"
   id="svg5"
   xml:space="preserve"
   inkscape:version="1.2.1 (9c6d41e410, 2022-07-14)"
   sodipodi:docname="github.svg"
   xmlns:inkscape="http://www.inkscape.org/namespaces/inkscape"
   xmlns:sodipodi="http://sodipodi.sourceforge.net/DTD/sodipodi-0.dtd"
   xmlns="http://www.w3.org/2000/svg"
   xmlns:svg="http://www.w3.org/2000/svg"><sodipodi:namedview
     id="namedview7"
     pagecolor="#505050"
     bordercolor="#eeeeee"
     borderopacity="1"
     inkscape:showpageshadow="0"
     inkscape:pageopacity="0"
     inkscape:pagecheckerboard="0"
     inkscape:deskcolor="#505050"
     inkscape:document-units="mm"
     showgrid="false"
     inkscape:zoom="5.4021324"
     inkscape:cx="92.556043"
     inkscape:cy="45.722685"
     inkscape:window-width="2560"
     inkscape:window-height="1361"
     inkscape:window-x="-9"
     inkscape:window-y="-9"
     inkscape:window-maximized="1"
     inkscape:current-layer="layer1" /><defs
     id="defs2" /><g
     inkscape:label="Layer 1"
     inkscape:groupmode="layer"
     id="layer1"
     transform="translate(-5.1618566,-4.4691889)"><g
       id="g596"
       transform="matrix(0.96403506,0,0,0.96403506,9.6651022,0.60005577)"
       style="stroke-width:1.03731"><path
         id="path302"
         style="fill:#ffffff;stroke-width:1.03731"
         d="m 1.5868072,9.239281 c -0.29574,0 -0.310076,0.020231 -0.481624,0.68678 -0.19989295,0.776672 -0.20062795,1.900733 -0.00207,2.473234 l 0.082165,0.236678 -0.28887095,0.381889 c -0.809955,1.070098 -1.123241,2.373027 -0.963249,4.00699 0.314142,3.20827 1.97770895,4.85283 5.38416795,5.322156 l 0.28422,0.03927 -0.202572,0.28267 c -0.24182,0.338412 -0.377612,0.650003 -0.478523,1.097091 l -0.074931,0.331246 -0.38809,0.131775 c -0.783069,0.265849 -1.49713,0.242762 -2.136304,-0.06925 -0.388643,-0.189713 -0.738568,-0.529005 -1.106392,-1.073319 -0.53246995,-0.787957 -1.16825595,-1.256075 -1.82934595,-1.346688 -0.302772,-0.0415 -0.68174805,0.05494 -0.73225505,0.186552 -0.04758,0.123985 0.167982,0.365186 0.57154105,0.639237 0.455079,0.309038 0.837352,0.790598 1.144116,1.441256 0.132858,0.281794 0.273657,0.580128 0.31316,0.663009 0.12026,0.25231 0.72350095,0.820813 1.04231295,0.982369 0.576846,0.292308 0.959247,0.37138 1.772502,0.366902 0.414402,-0.0023 0.867394,-0.03218 1.006657,-0.06666 0.139263,-0.03448 0.268076,-0.04767 0.286287,-0.02946 0.01821,0.01821 0.033073,0.573754 0.033073,1.23455 0,1.311574 -0.044453,1.529449 -0.337447,1.662948 -0.111077,0.05061 -0.216447,0.07012 -0.355017,0.05529 l 0.031006,0.08165 c 1.002927,0.259084 2.055332,0.397392 3.14141,0.397392 h 1.336869 c 1.074105,0 2.1154048,-0.135027 3.1083378,-0.388607 l 0.02894,-0.08113 c -0.01986,0.0026 -0.03797,0.0041 -0.05323,0.0041 -0.237606,0 -0.440006,-0.125248 -0.538985,-0.333829 -0.07872,-0.165882 -0.0933,-0.53023 -0.09405,-2.327507 -6.99e-4,-1.668683 -0.02001,-2.212883 -0.08992,-2.509408 -0.101812,-0.431835 -0.269945,-0.788471 -0.520899,-1.107425 l -0.173116,-0.220659 0.256832,-0.03927 c 2.044426,-0.310854 3.34542,-0.925814 4.231783,-2.000395 0.803614,-0.974259 1.237821,-2.421512 1.238684,-4.129463 6.88e-4,-1.36123 -0.360906,-2.47351 -1.076937,-3.31401 l -0.203088,-0.238228 0.100769,-0.357601 C 15.075163,11.525837 15.019008,10.362121 14.722439,9.560708 14.621417,9.287721 14.600003,9.268118 14.381892,9.250133 13.808105,9.202823 12.646583,9.628112 11.645108,10.252139 L 11.143846,10.564265 10.409524,10.41647 C 8.6553632,10.063401 6.9361232,10.085513 5.2134592,10.483133 l -0.42323,0.09767 -0.4408,-0.285254 C 3.4225762,9.695969 2.2279312,9.239281 1.5868072,9.239281 Z" /><path
         style="fill:#000000;stroke-width:1.03731"
         d="m 3.5297719,28.716572 c -0.760509,-0.282576 -1.786463,-0.812053 -2.5093621,-1.295037 -3.0441999,-2.033897 -4.9977899,-5.104294 -5.5849509,-8.777699 -0.143118,-0.895376 -0.142089,-2.874231 0.002,-3.759077 0.517415,-3.178432 2.043911,-5.925598 4.37868287,-7.88012 C 3.2169759,4.1576813 7.7080639,3.2788653 11.874652,4.6450313 c 5.882335,1.928736 9.517621,7.8686967 8.586486,14.0300907 -0.625127,4.136508 -3.263915,7.746745 -6.983521,9.554448 -0.807146,0.392268 -1.535028,0.669568 -1.757542,0.669568 -0.237606,0 -0.439852,-0.125333 -0.538831,-0.333916 -0.07872,-0.165882 -0.09346,-0.530097 -0.09421,-2.327378 -6.99e-4,-1.668687 -0.02025,-2.212823 -0.09016,-2.509348 -0.101812,-0.431837 -0.269553,-0.788841 -0.520507,-1.107797 l -0.173575,-0.220611 0.256943,-0.03907 c 2.04443,-0.310854 3.345689,-0.925981 4.232054,-2.000564 0.803616,-0.974261 1.237621,-2.421278 1.238484,-4.129233 6.88e-4,-1.361232 -0.360669,-2.473444 -1.0767,-3.313946 L 14.750531,12.678939 14.85096,12.321011 C 15.071392,11.535401 15.015582,10.372119 14.719013,9.5707057 14.617991,9.297717 14.596119,9.277775 14.378006,9.25979 13.804219,9.21248 12.642939,9.6376307 11.641462,10.26166 l -0.501308,0.312369 -0.734368,-0.14781 C 8.6516199,10.07315 6.9323879,10.095179 5.2097199,10.492799 l -0.423144,0.09767 -0.441014,-0.285291 C 3.4187069,9.7055977 2.2243039,9.248871 1.5831778,9.248871 c -0.29574,0 -0.309927,0.02024 -0.481477,0.6867886 -0.19989301,0.7766744 -0.20096101,1.9008794 -0.0024,2.4733804 l 0.08213,0.23674 -0.28886701,0.381646 c -0.80995702,1.0701 -1.12316202,2.373135 -0.96317002,4.007102 0.314143,3.208276 1.97801613,4.852917 5.38448113,5.322243 l 0.283829,0.0391 -0.202222,0.282995 c -0.241822,0.338412 -0.37762,0.649644 -0.478531,1.096732 l -0.07483,0.331523 -0.388255,0.131813 c -0.783071,0.265851 -1.497109,0.242679 -2.136285,-0.06933 C 1.9289379,23.979891 1.5791248,23.640455 1.2112988,23.096139 0.67882879,22.30818 0.04281777,21.840017 -0.61827417,21.749404 c -0.30277097,-0.0415 -0.68182993,0.0552 -0.73233793,0.186817 -0.04758,0.123985 0.167858,0.36487 0.57141893,0.638923 0.45507794,0.309038 0.83759994,0.790902 1.14436594,1.441562 0.132857,0.281794 0.27388002,0.580165 0.31338302,0.663046 0.12026,0.252312 0.72325101,0.820684 1.04206511,0.98224 0.576846,0.29231 0.959102,0.37146 1.772359,0.366982 0.414404,-0.0023 0.867404,-0.03236 1.006667,-0.06684 0.139263,-0.03448 0.268105,-0.04779 0.286316,-0.02958 0.01821,0.01821 0.03311,0.573763 0.03311,1.234561 0,1.311576 -0.04427,1.529897 -0.337264,1.663396 -0.228231,0.103989 -0.430767,0.07975 -0.952044,-0.113937 z"
         id="path465" /></g></g></svg>
