<?xml version="1.0" encoding="UTF-8" standalone="no"?>
<svg
   id="a"
   viewBox="0 0 183.436 53.295"
   version="1.1"
   sodipodi:docname="department.svg"
   inkscape:version="1.2.1 (9c6d41e410, 2022-07-14)"
   xmlns:inkscape="http://www.inkscape.org/namespaces/inkscape"
   xmlns:sodipodi="http://sodipodi.sourceforge.net/DTD/sodipodi-0.dtd"
   xmlns="http://www.w3.org/2000/svg"
   xmlns:svg="http://www.w3.org/2000/svg">
  <sodipodi:namedview
     id="namedview167"
     pagecolor="#505050"
     bordercolor="#eeeeee"
     borderopacity="1"
     inkscape:showpageshadow="0"
     inkscape:pageopacity="0"
     inkscape:pagecheckerboard="0"
     inkscape:deskcolor="#505050"
     showgrid="false"
     inkscape:zoom="6.9670074"
     inkscape:cx="91.789769"
     inkscape:cy="26.697259"
     inkscape:window-width="2560"
     inkscape:window-height="1361"
     inkscape:window-x="-9"
     inkscape:window-y="-9"
     inkscape:window-maximized="1"
     inkscape:current-layer="a" />
  <defs
     id="defs4">
    <style
       id="style2">.b,.c{fill:#4d4c4c;}.c{fill-rule:evenodd;}</style>
  </defs>
  <g
     id="g50"
     style="fill:#1a1a1a">
    <path
       class="c"
       d="M56.236,40.559v5.748c0,2.938,1.358,4.242,3.694,4.242,2.418,0,3.859-1.359,3.859-4.217v-5.774h-2.088v5.899c0,1.648-.603,2.418-1.703,2.418-1.057,0-1.676-.811-1.676-2.418v-5.899h-2.087Z"
       id="path6"
       style="fill:#1a1a1a" />
    <path
       class="c"
       d="M65.151,50.398h2.086v-3.873c0-.193,.017-.383,.07-.521,.152-.385,.494-.783,1.072-.783,.754,0,1.057,.59,1.057,1.457v3.721h2.088v-3.969c0-1.979-1.029-2.898-2.402-2.898-1.127,0-1.801,.644-2.074,1.086h-.043l-.096-.936h-1.81c.025,.606,.053,1.307,.053,2.143v4.574Z"
       id="path8"
       style="fill:#1a1a1a" />
    <path
       class="c"
       d="M73.876,40.559c-.674,0-1.113,.451-1.113,1.043,0,.576,.426,1.045,1.086,1.045,.701,0,1.125-.469,1.125-1.045-.014-.592-.424-1.043-1.098-1.043Z"
       id="path10"
       style="fill:#1a1a1a" />
    <rect
       class="b"
       x="72.819"
       y="43.682"
       width="2.086"
       height="6.717"
       id="rect12"
       style="fill:#1a1a1a" />
    <path
       class="c"
       d="M75.485,43.682l2.445,6.717h2.088l2.498-6.717h-2.197l-.865,3.117c-.15,.576-.262,1.086-.369,1.635h-.043c-.111-.535-.221-1.059-.387-1.635l-.902-3.117h-2.268Z"
       id="path14"
       style="fill:#1a1a1a" />
    <path
       class="c"
       d="M88.823,47.707c.027-.152,.07-.467,.07-.824,0-1.662-.826-3.352-2.996-3.352-2.334,0-3.393,1.883-3.393,3.586,0,2.102,1.307,3.42,3.586,3.42,.906,0,1.744-.139,2.43-.428l-.273-1.412c-.56,.189-1.141,.285-1.853,.285-.975,0-1.842-.41-1.896-1.275h4.326Zm-4.342-1.43c.057-.549,.414-1.359,1.293-1.359,.963,0,1.182,.852,1.182,1.359h-2.475Z"
       id="path16"
       style="fill:#1a1a1a" />
    <path
       class="c"
       d="M89.761,50.398h2.086v-3.408c0-.162,.016-.328,.041-.465,.139-.646,.662-1.059,1.43-1.059,.232,0,.398,.029,.564,.057v-1.965c-.152-.027-.248-.041-.439-.041-.66,0-1.471,.412-1.814,1.4h-.055l-.082-1.236h-1.785c.041,.578,.055,1.223,.055,2.211v4.506Z"
       id="path18"
       style="fill:#1a1a1a" />
    <path
       class="c"
       d="M94.212,50.07c.51,.273,1.293,.479,2.17,.479,1.922,0,2.898-.918,2.898-2.184-.014-.975-.535-1.633-1.814-2.074-.822-.287-1.084-.453-1.084-.783,0-.328,.289-.535,.797-.535,.562,0,1.154,.221,1.457,.385l.357-1.441c-.414-.207-1.1-.399-1.883-.399-1.662,0-2.732,.947-2.732,2.211-.014,.797,.521,1.553,1.922,2.02,.767,.262,.975,.426,.975,.783,0,.344-.26,.549-.893,.549-.615,0-1.414-.262-1.799-.494l-.371,1.484Z"
       id="path20"
       style="fill:#1a1a1a" />
    <path
       class="c"
       d="M101.231,40.559c-.672,0-1.111,.451-1.111,1.043,0,.576,.426,1.045,1.084,1.045,.703,0,1.127-.469,1.127-1.045-.012-.592-.424-1.043-1.1-1.043Z"
       id="path22"
       style="fill:#1a1a1a" />
    <rect
       class="b"
       x="100.175"
       y="43.682"
       width="2.088"
       height="6.717"
       id="rect24"
       style="fill:#1a1a1a" />
    <path
       class="c"
       d="M107.979,40.633v3.641h-.029c-.301-.455-.933-.756-1.769-.756-1.609,0-3.022,1.318-3.01,3.584,0,2.088,1.279,3.447,2.873,3.447,.863,0,1.687-.383,2.1-1.127h.041l.082,.977h1.855c-.027-.453-.055-1.25-.055-2.004v-7.762h-2.088Zm0,6.771c0,.164-.016,.33-.043,.48-.121,.592-.617,1.002-1.221,1.002-.865,0-1.43-.713-1.43-1.854,0-1.059,.481-1.908,1.443-1.908,.645,0,1.098,.465,1.221,1.017,.029,.121,.029,.271,.029,.383v.879Z"
       id="path26"
       style="fill:#1a1a1a" />
    <path
       class="c"
       d="M116.948,46.43c0-1.594-.699-2.912-2.937-2.912-1.223,0-2.143,.342-2.609,.606l.385,1.344c.439-.274,1.166-.506,1.856-.506,1.029,0,1.221,.506,1.221,.877v.084c-2.377,0-3.943,.822-3.943,2.566,0,1.072,.812,2.061,2.172,2.061,.799,0,1.482-.287,1.922-.822h.041l.125,.672h1.881c-.082-.369-.111-.988-.111-1.619v-2.35Zm-2.018,1.523c0,.125-.014,.248-.039,.359-.141,.424-.58,.767-1.088,.767-.467,0-.822-.262-.822-.797,0-.797,.852-1.057,1.949-1.057v.727Z"
       id="path28"
       style="fill:#1a1a1a" />
    <path
       class="c"
       d="M122.651,40.633v3.641h-.025c-.303-.455-.935-.756-1.771-.756-1.607,0-3.023,1.318-3.01,3.584,0,2.088,1.277,3.447,2.869,3.447,.867,0,1.691-.383,2.103-1.127h.041l.084,.977h1.854c-.029-.453-.055-1.25-.055-2.004v-7.762h-2.09Zm0,6.771c0,.164-.014,.33-.039,.48-.125,.592-.621,1.002-1.223,1.002-.867,0-1.43-.713-1.43-1.854,0-1.059,.482-1.908,1.441-1.908,.646,0,1.1,.465,1.225,1.017,.025,.121,.025,.271,.025,.383v.879Z"
       id="path30"
       style="fill:#1a1a1a" />
    <g
       id="g48"
       style="fill:#1a1a1a">
      <path
         class="c"
         d="M140.298,48.074c0,.111-.016,.252-.057,.395-.197,.574-.771,1.137-1.67,1.137-.617,0-1.152-.365-1.152-1.182,0-1.318,1.529-1.557,2.879-1.527v1.178m1.191-1.881c0-1.348-.504-2.766-2.584-2.766-.853,0-1.684,.24-2.244,.59l.281,.828c.477-.322,1.137-.504,1.783-.504,1.389-.016,1.545,1.01,1.545,1.559v.139c-2.627-.014-4.086,.885-4.086,2.525,0,.982,.703,1.953,2.076,1.953,.969,0,1.699-.479,2.078-1.012h.041l.098,.856h1.107c-.066-.463-.096-1.039-.096-1.629v-2.539Z"
         id="path32"
         style="fill:#1a1a1a" />
      <path
         class="b"
         d="M143.872,50.361h1.234v-3.621c0-.197,.016-.408,.043-.576,.168-.924,.787-1.57,1.658-1.57,.168,0,.293,0,.42,.027v-1.164c-.113-.014-.211-.029-.338-.029-.828,0-1.584,.576-1.893,1.49h-.043l-.059-1.348h-1.078c.043,.629,.055,1.318,.055,2.117v4.674"
         id="path34"
         style="fill:#1a1a1a" />
      <path
         class="c"
         d="M152.36,48.074c0,.111-.012,.252-.055,.395-.197,.574-.772,1.137-1.67,1.137-.617,0-1.152-.365-1.152-1.182,0-1.318,1.531-1.557,2.877-1.527v1.178m1.193-1.881c0-1.348-.504-2.766-2.582-2.766-.855,0-1.686,.24-2.244,.59l.281,.828c.475-.322,1.135-.504,1.781-.504,1.391-.016,1.543,1.01,1.543,1.559v.139c-2.623-.014-4.082,.885-4.082,2.525,0,.982,.701,1.953,2.076,1.953,.967,0,1.697-.479,2.076-1.012h.043l.098,.856h1.111c-.07-.463-.101-1.039-.101-1.629v-2.539Z"
         id="path36"
         style="fill:#1a1a1a" />
      <path
         class="c"
         d="M160.513,47.471c0,.209-.027,.449-.098,.658-.254,.787-.941,1.266-1.713,1.266-1.318,0-2.006-1.109-2.006-2.443,0-1.572,.84-2.568,2.021-2.568,.912,0,1.5,.59,1.727,1.318,.057,.156,.068,.338,.068,.549v1.221m1.236-2.049c0-.814,.016-1.375,.053-1.851h-1.094l-.041,1.023h-.025c-.309-.562-.942-1.166-2.121-1.166-1.57,0-3.074,1.293-3.074,3.592,0,1.883,1.207,3.312,2.893,3.312,1.053,0,1.795-.504,2.162-1.135h.027v.744c0,1.726-.928,2.387-2.189,2.387-.844,0-1.545-.256-1.994-.549l-.309,.955c.547,.365,1.445,.561,2.26,.561,.855,0,1.812-.211,2.484-.814,.643-.604,.969-1.543,.969-3.115v-3.943Z"
         id="path38"
         style="fill:#1a1a1a" />
      <path
         class="c"
         d="M167.022,44.355c1.459,0,2.035,1.445,2.035,2.596,0,1.529-.885,2.639-2.063,2.639-1.207,0-2.051-1.121-2.051-2.611,0-1.277,.633-2.623,2.078-2.623m.029-.928c-1.867,0-3.369,1.334-3.369,3.592,0,2.148,1.432,3.498,3.254,3.498,1.629,0,3.385-1.096,3.385-3.609,0-2.062-1.32-3.48-3.269-3.48Z"
         id="path40"
         style="fill:#1a1a1a" />
      <path
         class="b"
         d="M171.399,50.361h5.5v-.982h-3.957v-.027c.309-.336,.576-.689,.869-1.066l2.643-3.943v-.771h-5.166v.982h3.678v.025c-.311,.365-.197,.688-.506,1.068l-3.06,4v.715"
         id="path42"
         style="fill:#1a1a1a" />
      <path
         class="c"
         d="M182.147,48.074c0,.111-.016,.252-.055,.395-.197,.574-.773,1.137-1.67,1.137-.619,0-1.152-.365-1.152-1.182,0-1.318,1.529-1.557,2.877-1.527v1.178m1.193-1.881c0-1.348-.506-2.766-2.582-2.766-.855,0-1.685,.24-2.25,.59l.283,.828c.479-.322,1.139-.504,1.785-.504,1.389-.016,1.543,1.01,1.543,1.559v.139c-2.625-.014-4.084,.885-4.084,2.525,0,.982,.701,1.953,2.078,1.953,.965,0,1.695-.479,2.074-1.012h.045l.096,.856h1.107c-.068-.463-.096-1.039-.096-1.629v-2.539Z"
         id="path44"
         style="fill:#1a1a1a" />
      <polyline
         class="b"
         points="127.247 50.361 134.964 50.361 134.964 49.338 128.858 49.338 128.858 49.295 134.913 41.648 134.913 40.902 127.245 40.902 127.245 41.928 133.313 41.928 133.313 41.967 127.247 49.646 127.247 50.361"
         id="polyline46"
         style="fill:#1a1a1a" />
    </g>
  </g>
  <g
     id="g72"
     style="fill:#1a1a1a">
    <path
       class="b"
       d="M61.873,20.388c-.529,.18-1.529,.427-2.531,.427-1.383,0-2.383-.349-3.08-1.012-.686-.663-1.068-1.653-1.068-2.766,.012-2.519,1.844-3.959,4.33-3.959,.977,0,1.73,.191,2.102,.36l-.359,1.383c-.416-.191-.922-.326-1.754-.326-1.428,0-2.52,.81-2.52,2.451,0,1.575,.99,2.485,2.395,2.485,.383,0,.697-.045,.834-.101v-1.597h-1.17v-1.338h2.822v3.992Z"
       id="path52"
       style="fill:#1a1a1a" />
    <path
       class="b"
       d="M64.457,18.521c.057,.72,.754,1.057,1.553,1.057,.584,0,1.057-.079,1.518-.236l.225,1.158c-.562,.236-1.248,.349-1.99,.349-1.867,0-2.936-1.08-2.936-2.811,0-1.394,.877-2.935,2.777-2.935,1.777,0,2.453,1.383,2.453,2.744,0,.293-.035,.551-.057,.686l-3.543-.011Zm2.014-1.169c0-.405-.18-1.113-.957-1.113-.73,0-1.023,.663-1.068,1.113h2.025Z"
       id="path54"
       style="fill:#1a1a1a" />
    <path
       class="b"
       d="M71.596,20.86c-1.607,0-2.844-1.057-2.844-2.834s1.17-2.913,2.945-2.913c1.676,0,2.801,1.159,2.801,2.823,0,2.002-1.428,2.924-2.891,2.924h-.012Zm.035-1.226c.674,0,1.09-.664,1.09-1.653,0-.81-.314-1.642-1.09-1.642-.81,0-1.125,.832-1.125,1.653,0,.934,.394,1.642,1.113,1.642h.012Z"
       id="path56"
       style="fill:#1a1a1a" />
    <path
       class="b"
       d="M80.748,19.938c0,1.057-.213,1.923-.842,2.474-.598,.517-1.418,.675-2.228,.675-.73,0-1.484-.146-1.978-.417l.338-1.304c.348,.202,.943,.416,1.596,.416,.81,0,1.43-.427,1.43-1.451v-.349h-.023c-.326,.45-.853,.709-1.484,.709-1.361,0-2.328-1.102-2.328-2.677,0-1.776,1.137-2.901,2.496-2.901,.754,0,1.227,.326,1.508,.776h.023l.055-.652h1.484c-.021,.36-.045,.821-.045,1.642v3.059Zm-1.709-2.463c0-.101-.012-.214-.033-.315-.123-.45-.449-.753-.922-.753-.631,0-1.125,.562-1.125,1.563,0,.821,.404,1.462,1.113,1.462,.449,0,.799-.292,.91-.686,.045-.135,.057-.315,.057-.461v-.809Z"
       id="path58"
       style="fill:#1a1a1a" />
    <path
       class="b"
       d="M82.119,17.048c0-.81-.012-1.338-.045-1.811h1.463l.066,1.023h.045c.281-.81,.945-1.148,1.484-1.148,.158,0,.236,.011,.361,.034v1.608c-.146-.022-.281-.045-.473-.045-.631,0-1.057,.326-1.17,.866-.023,.113-.033,.236-.033,.382v2.778h-1.711l.012-3.689Z"
       id="path60"
       style="fill:#1a1a1a" />
    <path
       class="b"
       d="M90.945,19.409c0,.518,.023,1.024,.09,1.327h-1.539l-.101-.551h-.033c-.361,.439-.924,.675-1.576,.675-1.113,0-1.775-.81-1.775-1.686,0-1.428,1.281-2.103,3.227-2.103v-.067c0-.293-.156-.709-1-.709-.562,0-1.158,.191-1.52,.405l-.314-1.091c.383-.214,1.137-.495,2.137-.495,1.834,0,2.406,1.08,2.406,2.373v1.923Zm-1.652-1.27c-.9,0-1.598,.213-1.598,.866,0,.438,.293,.652,.676,.652,.416,0,.775-.281,.889-.63,.021-.09,.033-.191,.033-.293v-.596Z"
       id="path62"
       style="fill:#1a1a1a" />
    <path
       class="b"
       d="M92.496,20.736v-4.24h-.73v-1.259h.73v-.214c0-.664,.203-1.394,.686-1.844,.439-.405,1.023-.551,1.529-.551,.371,0,.664,.057,.9,.113l-.068,1.315c-.144-.045-.324-.079-.551-.079-.562,0-.797,.439-.797,.979v.281h1.101v1.259h-1.092v4.24h-1.709Z"
       id="path64"
       style="fill:#1a1a1a" />
    <path
       class="b"
       d="M96.115,20.736v-5.499h1.711v5.499h-1.711Zm2.689-7.872l-1.373,1.709h-1.17l.969-1.709h1.574Z"
       id="path66"
       style="fill:#1a1a1a" />
    <path
       class="b"
       d="M103.762,19.409c0,.518,.023,1.024,.09,1.327h-1.539l-.102-.551h-.033c-.361,.439-.924,.675-1.576,.675-1.113,0-1.775-.81-1.775-1.686,0-1.428,1.281-2.103,3.227-2.103v-.067c0-.293-.156-.709-1-.709-.562,0-1.158,.191-1.519,.405l-.314-1.091c.383-.214,1.137-.495,2.137-.495,1.834,0,2.406,1.08,2.406,2.373v1.923Zm-1.652-1.27c-.9,0-1.598,.213-1.598,.866,0,.438,.293,.652,.676,.652,.416,0,.775-.281,.889-.63,.022-.09,.033-.191,.033-.293v-.596Z"
       id="path68"
       style="fill:#1a1a1a" />
    <path
       class="b"
       d="M108.652,15.237l.82,2.699c.09,.326,.203,.731,.269,1.023h.035c.078-.292,.168-.708,.246-1.023l.676-2.699h1.832l-1.281,3.621c-.787,2.182-1.316,3.047-1.934,3.599-.586,.517-1.215,.708-1.654,.753l-.359-1.439c.213-.045,.484-.146,.742-.292,.258-.135,.551-.416,.709-.686,.055-.09,.09-.168,.09-.248,0-.056-.012-.146-.068-.281l-2.023-5.027h1.9Z"
       id="path70"
       style="fill:#1a1a1a" />
  </g>
  <g
     id="g120"
     style="fill:#1a1a1a">
    <path
       class="b"
       d="M58.758,32.429c-2.238,0-3.564-1.698-3.564-3.857,0-2.272,1.461-3.97,3.687-3.97,2.328,0,3.6,1.743,3.6,3.834,0,2.497-1.496,3.992-3.711,3.992h-.012Zm.078-1.36c1.158,0,1.822-1.091,1.822-2.576,0-1.36-.641-2.53-1.822-2.53s-1.844,1.148-1.844,2.564c0,1.428,.686,2.542,1.834,2.542h.01Z"
       id="path74"
       style="fill:#1a1a1a" />
    <path
       class="b"
       d="M63.547,28.617c0-.81-.012-1.338-.045-1.811h1.461l.068,1.023h.045c.281-.81,.943-1.147,1.484-1.147,.156,0,.236,.011,.359,.034v1.608c-.146-.023-.281-.045-.473-.045-.629,0-1.057,.326-1.17,.866-.021,.113-.033,.236-.033,.382v2.778h-1.709l.012-3.689Z"
       id="path76"
       style="fill:#1a1a1a" />
    <path
       class="b"
       d="M73.127,24.321v6.342c0,.63,.021,1.271,.045,1.642h-1.519l-.066-.798h-.033c-.338,.607-1.014,.922-1.721,.922-1.305,0-2.352-1.113-2.352-2.823-.01-1.844,1.148-2.924,2.463-2.924,.686,0,1.203,.248,1.451,.619h.021v-2.98h1.711Zm-1.711,4.824c0-.101,0-.213-.021-.315-.102-.461-.473-.832-1-.832-.789,0-1.182,.697-1.182,1.563,0,.922,.461,1.507,1.17,1.507,.494,0,.898-.337,1-.821,.023-.112,.033-.247,.033-.382v-.72Z"
       id="path78"
       style="fill:#1a1a1a" />
    <path
       class="b"
       d="M75.801,30.09c.057,.72,.754,1.057,1.553,1.057,.584,0,1.057-.079,1.517-.236l.225,1.158c-.562,.236-1.248,.349-1.99,.349-1.867,0-2.935-1.08-2.935-2.811,0-1.394,.877-2.935,2.777-2.935,1.777,0,2.453,1.383,2.453,2.744,0,.293-.035,.551-.057,.686l-3.543-.011Zm2.014-1.169c0-.405-.18-1.113-.957-1.113-.73,0-1.023,.663-1.068,1.113h2.025Z"
       id="path80"
       style="fill:#1a1a1a" />
    <path
       class="b"
       d="M80.41,28.561c0-.686-.023-1.26-.045-1.754h1.484l.078,.765h.035c.225-.36,.775-.889,1.697-.889,1.125,0,1.969,.753,1.969,2.373v3.25h-1.711v-3.047c0-.709-.246-1.192-.865-1.192-.473,0-.754,.326-.877,.641-.045,.112-.057,.27-.057,.427v3.171h-1.709v-3.745Z"
       id="path82"
       style="fill:#1a1a1a" />
    <path
       class="b"
       d="M91.564,30.979c0,.517,.021,1.023,.09,1.327h-1.541l-.101-.551h-.033c-.359,.439-.922,.675-1.574,.675-1.113,0-1.777-.81-1.777-1.687,0-1.428,1.283-2.103,3.228-2.103v-.067c0-.293-.158-.709-1.002-.709-.562,0-1.158,.191-1.518,.405l-.314-1.091c.383-.214,1.135-.495,2.137-.495,1.832,0,2.406,1.08,2.406,2.373v1.923Zm-1.652-1.27c-.9,0-1.598,.213-1.598,.866,0,.439,.293,.652,.674,.652,.416,0,.777-.281,.889-.63,.023-.09,.035-.191,.035-.292v-.596Z"
       id="path84"
       style="fill:#1a1a1a" />
    <path
       class="b"
       d="M97.039,32.171c-.303,.146-.877,.258-1.529,.258-1.777,0-2.912-1.091-2.912-2.823,0-1.608,1.102-2.924,3.148-2.924,.449,0,.945,.079,1.305,.214l-.269,1.27c-.203-.09-.506-.168-.957-.168-.898,0-1.484,.641-1.473,1.54,0,1.012,.674,1.552,1.508,1.552,.404,0,.719-.068,.977-.18l.203,1.26Z"
       id="path86"
       style="fill:#1a1a1a" />
    <path
       class="b"
       d="M98.814,26.087c-.572,0-.943-.405-.943-.911,0-.517,.381-.911,.967-.911s.943,.393,.955,.911c0,.506-.371,.911-.967,.911h-.012Zm-.844,6.219v-5.499h1.711v5.499h-1.711Z"
       id="path88"
       style="fill:#1a1a1a" />
    <path
       class="b"
       d="M103.57,32.429c-1.607,0-2.844-1.057-2.844-2.834s1.17-2.913,2.945-2.913c1.676,0,2.801,1.159,2.801,2.823,0,2.002-1.428,2.924-2.891,2.924h-.012Zm.035-1.226c.674,0,1.09-.664,1.09-1.653,0-.81-.314-1.642-1.09-1.642-.81,0-1.125,.832-1.125,1.653,0,.934,.395,1.642,1.113,1.642h.012Zm1.787-6.77l-1.371,1.709h-1.17l.967-1.709h1.574Z"
       id="path90"
       style="fill:#1a1a1a" />
    <path
       class="b"
       d="M107.516,28.561c0-.686-.022-1.26-.045-1.754h1.484l.08,.765h.033c.225-.36,.775-.889,1.697-.889,1.125,0,1.969,.753,1.969,2.373v3.25h-1.709v-3.047c0-.709-.248-1.192-.865-1.192-.473,0-.754,.326-.879,.641-.045,.112-.055,.27-.055,.427v3.171h-1.711v-3.745Z"
       id="path92"
       style="fill:#1a1a1a" />
    <path
       class="b"
       d="M121.683,24.321v6.342c0,.63,.023,1.271,.045,1.642h-1.518l-.068-.798h-.033c-.338,.607-1.012,.922-1.721,.922-1.305,0-2.35-1.113-2.35-2.823-.012-1.844,1.146-2.924,2.463-2.924,.686,0,1.203,.248,1.449,.619h.024v-2.98h1.709Zm-1.709,4.824c0-.101,0-.213-.024-.315-.1-.461-.471-.832-1-.832-.787,0-1.182,.697-1.182,1.563,0,.922,.463,1.507,1.17,1.507,.496,0,.9-.337,1.002-.821,.021-.112,.033-.247,.033-.382v-.72Z"
       id="path94"
       style="fill:#1a1a1a" />
    <path
       class="b"
       d="M124.359,30.09c.055,.72,.752,1.057,1.551,1.057,.586,0,1.057-.079,1.52-.236l.225,1.158c-.562,.236-1.248,.349-1.99,.349-1.867,0-2.935-1.08-2.935-2.811,0-1.394,.877-2.935,2.777-2.935,1.777,0,2.451,1.383,2.451,2.744,0,.293-.033,.551-.057,.686l-3.541-.011Zm2.012-1.169c0-.405-.18-1.113-.955-1.113-.73,0-1.023,.663-1.068,1.113h2.023Z"
       id="path96"
       style="fill:#1a1a1a" />
    <path
       class="b"
       d="M128.967,24.321h1.711v7.984h-1.711v-7.984Z"
       id="path98"
       style="fill:#1a1a1a" />
    <path
       class="b"
       d="M135.826,26.166h-2.047v-1.439h5.826v1.439h-2.07v6.14h-1.709v-6.14Z"
       id="path100"
       style="fill:#1a1a1a" />
    <path
       class="b"
       d="M141.762,30.09c.057,.72,.754,1.057,1.553,1.057,.584,0,1.057-.079,1.518-.236l.225,1.158c-.563,.236-1.248,.349-1.99,.349-1.867,0-2.936-1.08-2.936-2.811,0-1.394,.877-2.935,2.777-2.935,1.777,0,2.453,1.383,2.453,2.744,0,.293-.035,.551-.057,.686l-3.543-.011Zm2.014-1.169c0-.405-.18-1.113-.957-1.113-.73,0-1.023,.663-1.068,1.113h2.025Z"
       id="path102"
       style="fill:#1a1a1a" />
    <path
       class="b"
       d="M146.383,28.617c0-.81-.012-1.338-.045-1.811h1.461l.068,1.023h.045c.281-.81,.943-1.147,1.484-1.147,.156,0,.236,.011,.359,.034v1.608c-.146-.023-.281-.045-.473-.045-.629,0-1.057,.326-1.17,.866-.021,.113-.033,.236-.033,.382v2.778h-1.709l.012-3.689Z"
       id="path104"
       style="fill:#1a1a1a" />
    <path
       class="b"
       d="M150.642,28.617c0-.81-.012-1.338-.045-1.811h1.463l.066,1.023h.045c.281-.81,.945-1.147,1.484-1.147,.158,0,.236,.011,.361,.034v1.608c-.146-.023-.281-.045-.473-.045-.631,0-1.057,.326-1.17,.866-.023,.113-.033,.236-.033,.382v2.778h-1.711l.012-3.689Z"
       id="path106"
       style="fill:#1a1a1a" />
    <path
       class="b"
       d="M155.736,26.087c-.574,0-.945-.405-.945-.911,0-.517,.383-.911,.967-.911s.945,.393,.957,.911c0,.506-.371,.911-.967,.911h-.012Zm-.844,6.219v-5.499h1.709v5.499h-1.709Z"
       id="path108"
       style="fill:#1a1a1a" />
    <path
       class="b"
       d="M159.873,25.311v1.496h1.227v1.259h-1.227v2.002c0,.664,.17,.967,.676,.967,.236,0,.348-.011,.506-.045l.012,1.293c-.215,.079-.631,.146-1.104,.146-.551,0-1.012-.191-1.293-.472-.314-.326-.473-.855-.473-1.631v-2.26h-.73v-1.259h.73v-1.035l1.676-.461Z"
       id="path110"
       style="fill:#1a1a1a" />
    <path
       class="b"
       d="M164.607,32.429c-1.607,0-2.846-1.057-2.846-2.834s1.17-2.913,2.947-2.913c1.676,0,2.801,1.159,2.801,2.823,0,2.002-1.43,2.924-2.891,2.924h-.012Zm.033-1.226c.676,0,1.092-.664,1.092-1.653,0-.81-.314-1.642-1.092-1.642-.809,0-1.125,.832-1.125,1.653,0,.934,.394,1.642,1.115,1.642h.01Z"
       id="path112"
       style="fill:#1a1a1a" />
    <path
       class="b"
       d="M168.564,28.617c0-.81-.012-1.338-.045-1.811h1.461l.068,1.023h.045c.281-.81,.943-1.147,1.484-1.147,.156,0,.236,.011,.359,.034v1.608c-.146-.023-.281-.045-.473-.045-.629,0-1.057,.326-1.17,.866-.021,.113-.033,.236-.033,.382v2.778h-1.709l.012-3.689Z"
       id="path114"
       style="fill:#1a1a1a" />
    <path
       class="b"
       d="M173.656,26.087c-.572,0-.943-.405-.943-.911,0-.517,.381-.911,.967-.911s.943,.393,.955,.911c0,.506-.371,.911-.967,.911h-.012Zm-.844,6.219v-5.499h1.711v5.499h-1.711Z"
       id="path116"
       style="fill:#1a1a1a" />
    <path
       class="b"
       d="M178.412,32.429c-1.607,0-2.844-1.057-2.844-2.834s1.17-2.913,2.945-2.913c1.676,0,2.801,1.159,2.801,2.823,0,2.002-1.428,2.924-2.891,2.924h-.012Zm.035-1.226c.674,0,1.09-.664,1.09-1.653,0-.81-.314-1.642-1.09-1.642-.81,0-1.125,.832-1.125,1.653,0,.934,.394,1.642,1.113,1.642h.012Z"
       id="path118"
       style="fill:#1a1a1a" />
  </g>
  <g
     id="g150"
     style="fill:#1a1a1a">
    <path
       class="b"
       d="M55.541,1.248c.631-.112,1.451-.168,2.307-.168,1.449,0,2.394,.236,3.115,.787,.787,.585,1.281,1.529,1.281,2.879,0,1.451-.529,2.452-1.248,3.07-.799,.663-2.025,.978-3.51,.978-.887,0-1.529-.056-1.945-.112V1.248Zm1.709,6.174c.146,.034,.394,.034,.598,.034,1.562,.012,2.586-.843,2.586-2.654,0-1.63-.922-2.407-2.406-2.407-.371,0-.631,.034-.777,.068V7.421Z"
       id="path122"
       style="fill:#1a1a1a" />
    <path
       class="b"
       d="M64.615,6.499c.055,.72,.752,1.057,1.551,1.057,.586,0,1.057-.079,1.519-.236l.225,1.158c-.562,.236-1.248,.349-1.99,.349-1.867,0-2.936-1.08-2.936-2.812,0-1.394,.877-2.935,2.777-2.935,1.777,0,2.451,1.383,2.451,2.744,0,.292-.033,.551-.057,.686l-3.541-.011Zm2.012-1.169c0-.405-.18-1.113-.955-1.113-.73,0-1.023,.663-1.068,1.113h2.023Z"
       id="path124"
       style="fill:#1a1a1a" />
    <path
       class="b"
       d="M69.223,5.06c0-.72-.022-1.327-.045-1.844h1.484l.08,.765h.022c.406-.574,1.035-.889,1.834-.889,1.203,0,2.283,1.046,2.283,2.8,0,2.002-1.271,2.946-2.498,2.946-.662,0-1.18-.27-1.428-.629h-.021v2.733h-1.711V5.06Zm1.711,1.293c0,.135,.01,.248,.033,.36,.113,.462,.506,.81,1,.81,.742,0,1.182-.619,1.182-1.552,0-.877-.394-1.541-1.158-1.541-.484,0-.91,.36-1.023,.866-.023,.09-.033,.203-.033,.304v.753Z"
       id="path126"
       style="fill:#1a1a1a" />
    <path
       class="b"
       d="M80.512,7.388c0,.517,.023,1.023,.09,1.327h-1.539l-.102-.551h-.033c-.361,.439-.924,.675-1.576,.675-1.113,0-1.775-.81-1.775-1.686,0-1.428,1.281-2.103,3.227-2.103v-.067c0-.293-.156-.709-1-.709-.562,0-1.158,.191-1.519,.405l-.314-1.091c.383-.214,1.137-.495,2.137-.495,1.834,0,2.406,1.079,2.406,2.373v1.923Zm-1.652-1.271c-.9,0-1.598,.213-1.598,.866,0,.438,.293,.652,.676,.652,.416,0,.775-.281,.889-.63,.022-.09,.033-.191,.033-.292v-.596Z"
       id="path128"
       style="fill:#1a1a1a" />
    <path
       class="b"
       d="M81.873,5.026c0-.81-.012-1.338-.045-1.811h1.461l.068,1.023h.045c.281-.81,.943-1.147,1.484-1.147,.156,0,.236,.011,.359,.034v1.608c-.146-.022-.281-.045-.473-.045-.629,0-1.057,.326-1.17,.866-.021,.113-.033,.236-.033,.382v2.778h-1.709l.012-3.688Z"
       id="path130"
       style="fill:#1a1a1a" />
    <path
       class="b"
       d="M88.033,1.72v1.496h1.226v1.259h-1.226v2.002c0,.664,.17,.967,.676,.967,.236,0,.348-.011,.506-.045l.012,1.293c-.215,.079-.631,.146-1.103,.146-.551,0-1.012-.191-1.293-.472-.314-.326-.473-.855-.473-1.631v-2.26h-.73v-1.259h.73v-1.035l1.676-.461Z"
       id="path132"
       style="fill:#1a1a1a" />
    <path
       class="b"
       d="M94.812,7.388c0,.517,.023,1.023,.09,1.327h-1.539l-.101-.551h-.033c-.361,.439-.924,.675-1.576,.675-1.113,0-1.775-.81-1.775-1.686,0-1.428,1.281-2.103,3.227-2.103v-.067c0-.293-.156-.709-1-.709-.562,0-1.158,.191-1.52,.405l-.314-1.091c.383-.214,1.137-.495,2.137-.495,1.834,0,2.406,1.079,2.406,2.373v1.923Zm-1.652-1.271c-.9,0-1.598,.213-1.598,.866,0,.438,.293,.652,.676,.652,.416,0,.775-.281,.889-.63,.021-.09,.033-.191,.033-.292v-.596Z"
       id="path134"
       style="fill:#1a1a1a" />
    <path
       class="b"
       d="M96.16,4.97c0-.686-.021-1.26-.045-1.754h1.451l.068,.753h.033c.236-.36,.73-.877,1.664-.877,.721,0,1.271,.371,1.508,.945h.021c.215-.293,.451-.517,.721-.675,.303-.169,.641-.27,1.045-.27,1.057,0,1.855,.742,1.855,2.384v3.239h-1.664v-2.98c0-.798-.258-1.26-.809-1.26-.406,0-.676,.27-.799,.596-.035,.124-.057,.292-.057,.427v3.216h-1.664v-3.081c0-.686-.248-1.158-.799-1.158-.439,0-.697,.337-.799,.607-.057,.135-.066,.292-.066,.438v3.194h-1.666v-3.745Z"
       id="path136"
       style="fill:#1a1a1a" />
    <path
       class="b"
       d="M107.135,6.499c.057,.72,.754,1.057,1.553,1.057,.584,0,1.057-.079,1.517-.236l.225,1.158c-.563,.236-1.248,.349-1.99,.349-1.867,0-2.935-1.08-2.935-2.812,0-1.394,.877-2.935,2.777-2.935,1.777,0,2.453,1.383,2.453,2.744,0,.292-.035,.551-.057,.686l-3.543-.011Zm2.014-1.169c0-.405-.18-1.113-.957-1.113-.73,0-1.023,.663-1.068,1.113h2.025Z"
       id="path138"
       style="fill:#1a1a1a" />
    <path
       class="b"
       d="M111.744,4.97c0-.686-.023-1.26-.045-1.754h1.484l.078,.765h.035c.225-.36,.775-.889,1.697-.889,1.125,0,1.969,.753,1.969,2.373v3.25h-1.711v-3.047c0-.708-.246-1.192-.865-1.192-.473,0-.754,.326-.877,.641-.045,.112-.057,.27-.057,.427v3.171h-1.709v-3.745Z"
       id="path140"
       style="fill:#1a1a1a" />
    <path
       class="b"
       d="M120.232,1.72v1.496h1.226v1.259h-1.226v2.002c0,.664,.17,.967,.676,.967,.236,0,.348-.011,.506-.045l.012,1.293c-.215,.079-.631,.146-1.103,.146-.551,0-1.012-.191-1.293-.472-.314-.326-.473-.855-.473-1.631v-2.26h-.731v-1.259h.731v-1.035l1.676-.461Z"
       id="path142"
       style="fill:#1a1a1a" />
    <path
       class="b"
       d="M124.965,8.838c-1.607,0-2.844-1.057-2.844-2.834s1.17-2.913,2.945-2.913c1.676,0,2.801,1.159,2.801,2.823,0,2.002-1.428,2.924-2.891,2.924h-.012Zm.035-1.226c.674,0,1.09-.664,1.09-1.653,0-.809-.314-1.642-1.09-1.642-.811,0-1.125,.832-1.125,1.653,0,.934,.394,1.642,1.113,1.642h.012Z"
       id="path144"
       style="fill:#1a1a1a" />
    <path
       class="b"
       d="M136.502,.73V7.073c0,.63,.021,1.271,.045,1.642h-1.519l-.066-.798h-.033c-.338,.607-1.014,.922-1.721,.922-1.305,0-2.352-1.113-2.352-2.823-.01-1.844,1.148-2.924,2.463-2.924,.686,0,1.203,.248,1.451,.619h.021V.73h1.711Zm-1.711,4.824c0-.101,0-.213-.021-.315-.102-.461-.473-.832-1-.832-.789,0-1.182,.697-1.182,1.563,0,.922,.461,1.507,1.17,1.507,.494,0,.898-.337,1-.821,.023-.112,.033-.247,.033-.382v-.72Z"
       id="path146"
       style="fill:#1a1a1a" />
    <path
       class="b"
       d="M139.176,6.499c.057,.72,.754,1.057,1.553,1.057,.584,0,1.057-.079,1.517-.236l.225,1.158c-.562,.236-1.248,.349-1.99,.349-1.867,0-2.935-1.08-2.935-2.812,0-1.394,.877-2.935,2.777-2.935,1.777,0,2.453,1.383,2.453,2.744,0,.292-.035,.551-.057,.686l-3.543-.011Zm2.014-1.169c0-.405-.18-1.113-.957-1.113-.73,0-1.023,.663-1.068,1.113h2.025Z"
       id="path148"
       style="fill:#1a1a1a" />
  </g>
  <g
     id="g164"
     style="fill:#1a1a1a">
    <g
       id="g160"
       style="fill:#1a1a1a">
      <polygon
         class="c"
         points="8.758 50.508 9.701 50.508 9.701 46.34 8.898 46.34 7.789 46.851 7.949 47.584 8.744 47.203 8.758 47.203 8.758 50.508"
         id="polygon152"
         style="fill:#1a1a1a" />
      <path
         class="c"
         d="M15.396,46.34h-2.297l-.27,2.178c.168-.025,.328-.035,.561-.035,.832,0,1.172,.262,1.172,.699s-.43,.635-.836,.635c-.377,0-.754-.117-.934-.205l-.18,.728c.232,.123,.654,.238,1.16,.238,1.123,0,1.789-.686,1.789-1.463,0-.494-.193-.84-.506-1.051-.291-.211-.699-.303-1.1-.303-.102,0-.176,.008-.266,.014l.09-.637h1.615v-.799Z"
         id="path154"
         style="fill:#1a1a1a" />
      <path
         class="c"
         d="M20.361,50.508v-.996h.492v-.73h-.492v-2.441h-1.201l-1.57,2.539v.633h1.848v.996h.924Zm-1.867-1.727l.006-.012,.553-.91c.141-.264,.256-.508,.393-.777h.016c-.012,.269-.023,.527-.023,.777v.922h-.943Z"
         id="path156"
         style="fill:#1a1a1a" />
      <path
         class="c"
         d="M25.773,50.508v-.803h-1.578v-.012l.385-.32c.611-.539,1.111-1.098,1.111-1.797,0-.76-.514-1.307-1.463-1.307-.559,0-1.051,.191-1.359,.428l.277,.691c.215-.16,.529-.338,.891-.338,.48,0,.678,.27,.678,.609-.006,.486-.449,.955-1.365,1.775l-.531,.482v.59h2.955Z"
         id="path158"
         style="fill:#1a1a1a" />
    </g>
    <path
       class="b"
       d="M18.982,19.301c.225,0,.404-.182,.404-.404,0-.221-.18-.402-.404-.402-.221,0-.4,.182-.4,.402,0,.223,.18,.404,.4,.404Zm.412-.027c0,.223,.18,.402,.402,.402,.221,0,.402-.18,.402-.402s-.182-.402-.402-.402c-.223,0-.402,.18-.402,.402Zm-1.197-1.234c-.221,0-.4,.18-.4,.4,0,.225,.18,.404,.4,.404,.223,0,.404-.18,.404-.404,0-.221-.182-.4-.404-.4Zm2.08,1.551c0,.147,.117,.264,.264,.264s.264-.117,.264-.264-.117-.264-.264-.264-.264,.117-.264,.264Zm1.611-11.117v-2c0-.619-.5-1.121-1.123-1.121-.619,0-1.119,.502-1.119,1.121v2c0,.135,.102,.203,.201,.203h1.84c.101,0,.201-.068,.201-.203Zm-5.232,9.654c0,.309,.25,.559,.559,.559s.559-.25,.559-.559-.25-.557-.559-.557-.559,.248-.559,.557Zm-1.223,.367c-.223,0-.402,.182-.402,.402,0,.223,.18,.404,.402,.404,.221,0,.402-.182,.402-.404,0-.221-.182-.402-.402-.402Zm.795,.35c.221,0,.402-.18,.402-.404,0-.221-.182-.4-.402-.4-.223,0-.402,.18-.402,.4,0,.225,.18,.404,.402,.404Zm-1.205-4.613v3.902l2.205-1.041,2.316,1.131v-3.992c0-1.252-1.01-2.26-2.262-2.26s-2.26,1.008-2.26,2.26Zm-.004-7.758c0-.619-.5-1.121-1.121-1.121s-1.121,.502-1.121,1.121v2c0,.135,.1,.203,.201,.203h1.84c.102,0,.201-.068,.201-.203v-2Zm17.264-3.293l1.873-1.873H.754l1.187,1.873h30.342Zm-2.652-2.34l1.568-.84H3.246l.992,.84H29.631ZM14.613,18.871c-.221,0-.4,.18-.4,.402s.18,.402,.4,.402c.223,0,.404-.18,.404-.402s-.182-.402-.404-.402Zm8.564-4.641v4.029c0,.27,.201,.406,.404,.406h3.707c.205,0,.408-.137,.408-.406v-4.029c0-1.252-1.01-2.26-2.262-2.26s-2.258,1.008-2.258,2.26Zm-4.988-5.555c.103,0,.203-.068,.203-.203v-2c0-.619-.502-1.121-1.123-1.121s-1.121,.502-1.121,1.121v2c0,.135,.102,.203,.203,.203h1.838Zm-4.525,10.914c0,.147,.117,.264,.264,.264,.144,0,.262-.117,.262-.264s-.117-.264-.262-.264c-.146,0-.264,.117-.264,.264Zm9.465,2.582l-5.9-3.189-5.994,3.141,11.895,.049Zm-6.516-2.246h1.209c.066,0,.131,.043,.131,.131v.949c0,.408-.328,.736-.734,.736-.41,0-.738-.328-.738-.736v-.949c0-.088,.066-.131,.133-.131ZM0,39.961v2.09H34.502v-2.09H0Zm11.219-15.459c0-.328-.264-.594-.594-.594-.326,0-.592,.266-.592,.594s.266,.594,.592,.594c.33,0,.594-.266,.594-.594ZM6.721,14.23v4.029c0,.27,.203,.406,.406,.406h3.705c.205,0,.408-.137,.408-.406v-4.029c0-1.252-1.01-2.26-2.26-2.26s-2.26,1.008-2.26,2.26Zm3.744-8.879c-.623,0-1.121,.502-1.121,1.121v2c0,.135,.1,.203,.201,.203h1.84c.1,0,.203-.068,.203-.203v-2c0-.619-.502-1.121-1.123-1.121Zm-2.541,19.15c0-.328-.266-.594-.594-.594s-.594,.266-.594,.594,.266,.594,.594,.594,.594-.266,.594-.594Zm-.832-19.15c-.621,0-1.119,.502-1.119,1.121v2c0,.135,.1,.203,.201,.203h1.838c.101,0,.203-.068,.203-.203v-2c0-.619-.502-1.121-1.123-1.121Zm-.371,29.649c0,.27,.203,.406,.406,.406h3.705c.205,0,.408-.137,.408-.406v-6.842c0-1.253-1.01-2.261-2.26-2.261s-2.26,1.008-2.26,2.261v6.842Zm-4.451,4.248h29.967v-1.672H2.269v1.672ZM28.619,8.676c.1,0,.201-.068,.201-.203v-2c0-.619-.502-1.121-1.123-1.121s-1.119,.502-1.119,1.121v2c0,.135,.1,.203,.201,.203h1.84ZM4.486,36.928H30.017v-1.098H4.486v1.098Zm19.226-11.832c.328,0,.594-.266,.594-.594s-.266-.594-.594-.594-.594,.266-.594,.594,.266,.594,.594,.594Zm3.889-.594c0-.328-.266-.594-.596-.594-.326,0-.592,.266-.592,.594s.266,.594,.592,.594c.33,0,.596-.266,.596-.594Zm-4.037,10.857h3.707c.203,0,.404-.137,.404-.406v-7.027c0-1.253-1.008-2.26-2.26-2.26s-2.258,1.007-2.258,2.26v7.027c0,.27,.201,.406,.406,.406Zm.572-30.008c-.619,0-1.119,.502-1.119,1.121v2c0,.135,.1,.203,.201,.203h1.84c.102,0,.203-.068,.203-.203v-2c0-.619-.502-1.121-1.125-1.121Zm-9.603,30.055h5.201c.287,0,.572-.191,.572-.57v-7.262c0-1.759-1.418-3.172-3.174-3.172s-3.168,1.413-3.168,3.172v7.262c0,.379,.283,.57,.568,.57Zm-.059-11.32c.328,0,.594-.266,.594-.594,0-.326-.266-.594-.594-.594s-.594,.268-.594,.594c0,.328,.266,.594,.594,.594Zm5.752-.594c0-.326-.264-.594-.594-.594-.326,0-.594,.268-.594,.594,0,.328,.268,.594,.594,.594,.33,0,.594-.266,.594-.594Z"
       id="path162"
       style="fill:#1a1a1a" />
  </g>
</svg>
