<?xml version="1.0" encoding="UTF-8" standalone="no"?>
<!-- Created with Inkscape (http://www.inkscape.org/) -->

<svg
   width="198.24187mm"
   height="230.23534mm"
   viewBox="0 0 198.24187 230.23534"
   version="1.1"
   id="svg5"
   xml:space="preserve"
   inkscape:version="1.2.1 (9c6d41e410, 2022-07-14)"
   sodipodi:docname="paf.svg"
   xmlns:inkscape="http://www.inkscape.org/namespaces/inkscape"
   xmlns:sodipodi="http://sodipodi.sourceforge.net/DTD/sodipodi-0.dtd"
   xmlns="http://www.w3.org/2000/svg"
   xmlns:svg="http://www.w3.org/2000/svg"><sodipodi:namedview
     id="namedview7"
     pagecolor="#505050"
     bordercolor="#eeeeee"
     borderopacity="1"
     inkscape:showpageshadow="0"
     inkscape:pageopacity="0"
     inkscape:pagecheckerboard="0"
     inkscape:deskcolor="#505050"
     inkscape:document-units="mm"
     showgrid="false"
     inkscape:zoom="0.67526655"
     inkscape:cx="239.16482"
     inkscape:cy="309.50741"
     inkscape:window-width="2560"
     inkscape:window-height="1361"
     inkscape:window-x="-9"
     inkscape:window-y="-9"
     inkscape:window-maximized="1"
     inkscape:current-layer="layer1" /><defs
     id="defs2" /><g
     inkscape:label="Layer 1"
     inkscape:groupmode="layer"
     id="layer1"
     transform="translate(0,-33.944209)"><path
       style="fill:#000000;stroke-width:1"
       d="m 32.006135,263.60386 c -0.26339,-0.29104 -0.69964,-0.52917 -0.96946,-0.52917 -0.89879,0 -2.03794,-1.39681 -2.35862,-2.89212 -0.21774,-1.01526 -0.21953,-1.47131 -0.007,-1.68423 0.16059,-0.16059 0.29199,-0.63038 0.29199,-1.04398 0,-0.92797 0.22987,-1.23161 2.35434,-3.10977 0.79197,-0.70015 1.09342,-0.7949 2.52912,-0.7949 1.67381,0 2.76311,0.45881 2.41739,1.0182 -0.10752,0.17397 -0.85544,0.30472 -1.74299,0.30472 -1.8833,0 -2.48388,0.22186 -3.77193,1.39333 -0.95591,0.86942 -0.99218,0.96649 -0.99218,2.65564 0,1.48246 0.0817,1.79699 0.52916,2.03645 0.29105,0.15576 0.52917,0.4576 0.52917,0.67076 0,0.2317 0.253,0.38757 0.62906,0.38757 0.34599,0 0.77728,0.17859 0.95844,0.39687 0.22049,0.26567 0.82163,0.39822 1.81833,0.40093 1.67997,0.005 2.30311,0.27474 2.06499,0.89529 -0.26204,0.68287 -3.64211,0.59948 -4.28019,-0.10559 z m 43.09534,0.14496 c -0.24591,-0.64083 0.14261,-0.93871 1.22436,-0.93871 1.2359,0 2.37926,-0.91754 2.37926,-1.90933 0,-0.67186 -1.34374,-2.324 -1.89019,-2.324 -0.65623,0 -1.54941,-1.34659 -1.54462,-2.32874 0.004,-0.81246 0.18057,-1.12451 1.04054,-1.83845 1.05088,-0.87244 2.35563,-1.12756 3.16043,-0.61796 0.69075,0.43738 0.11163,1.08098 -0.97268,1.08098 -0.81834,0 -1.12911,0.1518 -1.59171,0.77749 l -0.57482,0.7775 0.84202,0.84203 c 0.46312,0.46311 1.16701,0.95531 1.56422,1.09378 0.86778,0.30251 1.2528,1.26943 1.08581,2.72691 -0.12691,1.10772 -0.6937,1.98437 -1.28298,1.98437 -0.19061,0 -0.47401,0.23813 -0.62977,0.52917 -0.21873,0.40872 -0.55399,0.52917 -1.47282,0.52917 -0.79593,0 -1.23841,-0.12715 -1.33705,-0.38421 z M 0.01619516,262.84998 c -0.0764,-0.1236 0.12494,-0.47253 0.4474,-0.77541 0.85688004,-0.80485 1.16097004,-1.22005 1.36550004,-1.86447 0.10037,-0.31625 0.29193,-0.57499 0.4257,-0.57499 0.13376,0 0.4238,-0.38695 0.64453,-0.8599 0.64829,-1.38902 2.05262,-3.7485 2.40151,-4.03489 0.17727,-0.14552 0.65748,-1.00854 1.06711,-1.91782 0.77137,-1.71222 1.26099,-2.08453 2.37395,-1.8052 0.45175,0.11338 0.64237,0.34542 0.64237,0.78196 0,0.34141 0.23812,0.92346 0.52916,1.29346 0.2910398,0.37 0.5329598,0.89208 0.5375798,1.16016 0.005,0.26809 0.18323,0.71855 0.39688,1.00103 0.21365,0.28247 0.38846,0.77004 0.38846,1.08347 0,0.31344 0.23812,0.78538 0.52917,1.04877 0.29104,0.26339 0.52916,0.75107 0.52916,1.08373 0,0.33266 0.11874,0.67821 0.26386,0.7679 0.14511,0.0897 0.58115,0.81109 0.96897,1.60312 0.38782,0.79202 0.79196,1.44004 0.89809,1.44004 0.35576,0 0.47741,-1.16724 0.49464,-4.7459 0.0123,-2.54911 0.11116,-3.61499 0.34942,-3.76626 0.51501,-0.32697 4.81365,-0.26213 5.15351,0.0777 0.61071,0.6107 0.0533,1.02609 -1.37685,1.02609 -0.7666,0 -1.77195,0.0756 -2.23411,0.16806 -0.79824,0.15964 -0.83631,0.22254 -0.76068,1.25677 l 0.0796,1.08871 1.5875,0.0807 c 2.78184,0.14136 2.61938,1.09837 -0.18774,1.1059 l -1.51065,0.004 -0.0768,2.17941 -0.0768,2.1794 -2.31511,0.0818 -2.3151,0.0818 -0.009,-0.73988 c -0.005,-0.40694 -0.23903,-1.21613 -0.5202,-1.79822 -0.28117,-0.58208 -0.51525,-1.26669 -0.52019,-1.52135 -0.008,-0.40929 -0.3139298,-0.46302 -2.6369798,-0.46302 -2.39563,0 -2.64285,0.0468 -2.79595,0.52916 -0.0924,0.29105 -0.2736,0.52917 -0.40272,0.52917 -0.12912,0 -0.31319,0.41803 -0.40904,0.92897 -0.0958,0.51092 -0.28718,0.99874 -0.42518,1.08403 -0.138,0.0853 -0.35968,0.44116 -0.49263,0.79083 -0.21043,0.55348 -0.41174,0.63575 -1.55556,0.63575 -0.72262004,0 -1.37635004,-0.10112 -1.45273004,-0.22471 z m 8.92848004,-5.48405 c 0.33556,-0.12877 0.29557,-0.35533 -0.25687,-1.45521 -0.35987,-0.71648 -0.73734,-1.29891 -0.83882,-1.29428 -0.29707,0.0136 -1.11056,0.69182 -1.11056,0.92596 0,0.11802 -0.19303,0.42788 -0.42896,0.68858 -0.7001,0.77361 -0.27684,1.28746 1.06048,1.28746 0.64751,0 1.35614,-0.0686 1.57473,-0.15251 z m 13.2091098,5.49275 c -0.24236,-0.15394 -0.25953,-0.44438 -0.0661,-1.11868 0.33582,-1.17092 0.33935,-6.09824 0.005,-6.97763 -0.36341,-0.95584 0.26582,-1.21357 2.95079,-1.20863 2.34741,0.004 3.03433,0.22269 2.78059,0.88393 -0.12067,0.31446 -0.6475,0.43061 -2.22137,0.48973 l -2.06318,0.0775 v 1.19063 1.19062 l 1.5669,0.13229 c 2.53982,0.21444 2.08661,1.04617 -0.57471,1.05473 l -1.12448,0.004 v 1.71979 1.71979 l 1.91823,0.004 c 1.98216,0.004 2.78072,0.25037 2.46568,0.76012 -0.20957,0.33907 -5.11932,0.40714 -5.6373,0.0781 z m 17.83508,0.0408 c -0.0964,-0.0964 -0.0991,-1.67958 -0.006,-3.5182 0.20871,-4.12378 0.0675,-4.50863 -1.65438,-4.50863 -1.09282,0 -1.19219,-0.053 -1.11517,-0.59531 0.0822,-0.57883 0.1817,-0.59736 3.59328,-0.66916 2.18639,-0.046 3.71347,0.0357 4.05198,0.21689 0.8909,0.47679 0.15655,0.9712 -1.635,1.10079 -0.99525,0.072 -1.69286,0.25925 -1.84164,0.49436 -0.31593,0.49922 -0.3099,6.35258 0.007,6.85378 0.37266,0.5893 -0.87766,1.14789 -1.40007,0.62548 z m 3.92192,-0.0919 c -0.0908,-0.14695 0.19981,-0.57425 0.64584,-0.94957 0.44604,-0.37531 0.81097,-0.83433 0.81097,-1.02005 0,-0.18572 0.23812,-0.6404 0.52917,-1.0104 0.29104,-0.37 0.52916,-0.84386 0.52916,-1.05301 0,-0.20916 0.23813,-0.59578 0.52917,-0.85917 0.29104,-0.26339 0.52917,-0.68398 0.52917,-0.93465 0,-0.25067 0.17859,-0.60399 0.39687,-0.78514 0.21828,-0.18116 0.39688,-0.49713 0.39688,-0.70216 0,-0.20503 0.17535,-0.44007 0.38967,-0.52232 0.21433,-0.0822 0.46693,-0.56127 0.56133,-1.0645 0.14918,-0.79516 0.2618,-0.90441 0.86014,-0.83435 0.58437,0.0684 0.72359,0.25921 0.92063,1.26164 0.12768,0.64956 0.38442,1.3044 0.57054,1.4552 0.18611,0.15081 0.41807,0.616 0.51547,1.03376 0.0974,0.41776 0.34981,0.93228 0.5609,1.14338 0.2111,0.21109 0.38382,0.67296 0.38382,1.02637 0,0.35341 0.10462,0.64256 0.23248,0.64256 0.12787,0 0.37801,0.38695 0.55587,0.8599 0.17786,0.47294 0.45184,1.13019 0.60883,1.46055 0.35724,0.75171 -0.0198,1.20044 -0.90365,1.07539 -0.45555,-0.0645 -0.6669,-0.30451 -0.77679,-0.8823 -0.083,-0.43656 -0.31749,-1.1807 -0.52103,-1.65364 l -0.37006,-0.8599 h -2.28224 c -1.87497,0 -2.36037,0.0863 -2.72011,0.48385 -0.24084,0.26612 -0.43789,0.68876 -0.43789,0.93918 0,0.25044 -0.18165,0.80661 -0.40367,1.23594 -0.30696,0.59361 -0.58845,0.78061 -1.17501,0.78061 -0.42423,0 -0.84564,-0.12023 -0.93646,-0.26717 z m 7.01306,-5.13844 c 0,-0.62035 -1.01323,-2.49779 -1.36038,-2.52069 -0.0934,-0.006 -0.24446,0.28646 -0.33577,0.65026 -0.0913,0.3638 -0.32846,0.66146 -0.527,0.66146 -0.35769,0 -0.75279,1.26743 -0.51503,1.65214 0.068,0.10997 0.71186,0.19994 1.43088,0.19994 1.20812,0 1.3073,-0.0488 1.3073,-0.64311 z m 4.8855,5.12599 c -0.0951,-0.15379 -0.0801,-0.60027 0.0333,-0.99219 0.11336,-0.39191 0.21995,-2.21964 0.23687,-4.06163 0.0216,-2.34779 0.13528,-3.47501 0.38036,-3.77032 0.26805,-0.32297 0.8588,-0.42124 2.53246,-0.42124 h 2.18287 l 1.09203,1.18472 c 1.04031,1.12861 1.09203,1.26417 1.09203,2.86265 0,1.6661 -0.01,1.68857 -1.42124,3.18092 -0.78168,0.82663 -1.60054,1.50296 -1.81969,1.50296 -0.21914,0 -0.54666,0.1786 -0.72782,0.39688 -0.38727,0.46663 -3.30618,0.5622 -3.58117,0.11725 z m 4.02548,-1.80465 c 2.29168,-1.52663 2.55461,-1.89401 2.33105,-3.25701 -0.10292,-0.62756 -0.38226,-1.36156 -0.62073,-1.63112 -1.0914,-1.23366 -3.23606,-1.64613 -3.73283,-0.71791 -0.29885,0.55842 -0.3836,6.16949 -0.0975,6.45559 0.30085,0.30085 0.53242,0.20805 2.12001,-0.84955 z m 6.10412,1.51145 c -0.5457,-0.29556 -0.99218,-0.63627 -0.99218,-0.75713 0,-0.12086 -0.1688,-0.38854 -0.3751,-0.59485 -0.4563,-0.4563 -0.62698,-2.92471 -0.23596,-3.4124 0.15494,-0.19323 0.37145,-0.64899 0.48114,-1.0128 0.21197,-0.70303 1.61657,-2.11666 2.10315,-2.11666 0.15973,0 0.49431,-0.23813 0.7435,-0.52917 0.36749,-0.42919 0.76599,-0.52565 2.10933,-0.51057 2.12564,0.0239 2.35315,0.12946 3.48857,1.61918 0.82394,1.08103 0.94579,1.43149 0.94579,2.72028 0,1.07093 -0.10958,1.52143 -0.39688,1.63168 -0.21828,0.0838 -0.39687,0.43721 -0.39687,0.78545 0,0.34823 -0.12201,0.63315 -0.27113,0.63315 -0.14913,0 -0.38431,0.29765 -0.52262,0.66145 -0.13832,0.36381 -0.382,0.66146 -0.54152,0.66146 -0.15952,0 -0.46862,0.1786 -0.68691,0.39688 -0.62508,0.62509 -4.18547,0.51019 -5.45231,-0.17595 z m 4.81454,-0.86538 c 0.17339,-0.20893 0.64232,-0.4517 1.04207,-0.5395 0.64863,-0.14246 0.75352,-0.32214 0.97522,-1.67065 0.31045,-1.88842 0.007,-2.90941 -1.15594,-3.88787 -0.73154,-0.61555 -1.04727,-0.71169 -1.98313,-0.60387 -0.61218,0.0705 -1.66768,0.46491 -2.34554,0.87642 -1.16075,0.70463 -1.24274,0.83032 -1.40882,2.1596 -0.23954,1.9172 0.005,2.75102 1.00315,3.42545 1.02144,0.68992 3.3785,0.83624 3.87299,0.24042 z m 15.42821,1.26672 c -0.22356,-0.0924 -0.25078,-0.28123 -0.0852,-0.5907 0.13391,-0.2502 0.25342,-2.22873 0.26559,-4.39674 0.0158,-2.81564 0.11573,-4.0056 0.34974,-4.16503 0.18019,-0.12276 1.11389,-0.18554 2.0749,-0.13951 1.55555,0.0745 1.82321,0.17008 2.43904,0.87097 0.53098,0.60432 0.69368,1.07497 0.7001,2.02516 0.005,0.68083 -0.14713,1.3952 -0.33717,1.5875 -0.19005,0.19229 -0.42547,0.56069 -0.52317,0.81865 -0.0977,0.25796 -0.38869,0.54693 -0.64665,0.64216 -0.25796,0.0952 -0.54592,0.28784 -0.6399,0.42804 -0.094,0.1402 -0.62977,0.32893 -1.19063,0.41941 -0.98048,0.15817 -1.02484,0.21014 -1.15204,1.34953 -0.13031,1.16726 -0.46702,1.47604 -1.25465,1.15056 z m 2.84215,-4.06185 c 0.15576,-0.29104 0.39672,-0.52917 0.53545,-0.52917 0.13874,0 0.49174,-0.20505 0.78445,-0.45567 1.32152,-1.13152 -0.13651,-3.21517 -2.00458,-2.86472 l -0.90282,0.16937 v 1.92829 c 0,1.06056 0.0794,2.00766 0.17639,2.10468 0.35646,0.35645 1.13582,0.16161 1.41111,-0.35278 z m 5.62841,3.75171 c -0.46964,-0.24443 -0.85659,-0.55411 -0.8599,-0.68817 -0.003,-0.13406 -0.20817,-0.46714 -0.45527,-0.74018 -0.51787,-0.57224 -0.65886,-3.28151 -0.18679,-3.58942 0.1595,-0.10403 0.37258,-0.52634 0.47352,-0.93847 0.18434,-0.75267 1.36648,-2.00483 1.90746,-2.02044 0.15935,-0.005 0.50523,-0.24649 0.76862,-0.53753 0.38876,-0.42959 0.8149,-0.52917 2.26446,-0.52917 1.631285,0 1.867805,0.0728 2.737125,0.84244 0.52335,0.46333 0.95154,0.98638 0.95154,1.16231 0,0.17594 0.17859,0.38842 0.39688,0.47218 0.63209,0.24256 0.53698,2.83681 -0.1323,3.60849 -0.29104,0.33557 -0.52916,0.77425 -0.52916,0.97483 0,0.20058 -0.1786,0.43323 -0.39688,0.51699 -0.21828,0.0838 -0.39687,0.29576 -0.39687,0.47111 0,0.17534 -0.35237,0.57932 -0.78304,0.89773 -0.654735,0.48406 -1.120785,0.57588 -2.844275,0.56033 -1.3839,-0.0125 -2.34183,-0.16464 -2.91512,-0.46303 z m 4.93338,-0.94763 c 0.16931,-0.204 0.600615,-0.44439 0.958445,-0.5342 0.51299,-0.12876 0.65061,-0.3338 0.65061,-0.9694 0,-0.44335 0.13245,-1.05358 0.29433,-1.35606 0.40115,-0.74957 -0.13967,-2.34308 -1.1111,-3.27376 -0.645615,-0.61854 -0.903935,-0.69391 -2.012485,-0.58717 -1.69932,0.16361 -3.41282,1.34007 -3.77754,2.59359 -0.54982,1.88976 -0.28362,2.85183 1.05054,3.79674 1.08231,0.76654 3.42262,0.96235 3.9472,0.33026 z m 5.285305,1.25022 c -0.0153,-0.11981 -0.004,-2.18237 0.0255,-4.58347 0.0361,-2.95643 0.15191,-4.42837 0.35864,-4.56001 0.16789,-0.10691 0.90806,-0.19621 1.64482,-0.19844 1.12403,-0.003 1.44826,0.11303 2.01511,0.72356 1.16081,1.25026 1.2507,1.60567 0.69628,2.75318 -0.27607,0.57139 -0.79445,1.17217 -1.15196,1.33506 -0.35752,0.1629 -0.65003,0.39613 -0.65003,0.51829 0,0.41456 0.93405,1.14591 2.31116,1.80961 0.75484,0.36381 1.37707,0.79571 1.38273,0.9598 0.006,0.16408 0.18756,0.44546 0.40424,0.62529 0.21668,0.17982 0.32871,0.43253 0.24897,0.56156 -0.29276,0.47369 -1.19592,0.21266 -2.16353,-0.62529 -1.18621,-1.02727 -1.80659,-1.4326 -2.77888,-1.81564 -0.40017,-0.15766 -0.7276,-0.39406 -0.7276,-0.52535 0,-0.13128 -0.11338,-0.2387 -0.25195,-0.2387 -0.13858,0 -0.28741,0.74294 -0.33073,1.65099 -0.0632,1.3244 -0.17037,1.66844 -0.5418,1.73919 -0.25466,0.0485 -0.47558,-0.01 -0.49093,-0.12963 z m 2.54146,-5.2013 c 1.31783,-0.71621 1.49123,-1.48855 0.50788,-2.26205 -0.75331,-0.59256 -1.82026,-0.74028 -2.09823,-0.29051 -0.20213,0.32705 0.12759,3.1791 0.36406,3.14907 0.0924,-0.0117 0.6442,-0.28016 1.22629,-0.59651 z m 10.35171,5.16909 c -0.0779,-0.12611 -0.1582,-2.173 -0.17836,-4.54864 -0.0312,-3.67862 0.0251,-4.3539 0.37948,-4.55224 0.22888,-0.12809 1.51999,-0.19862 2.86915,-0.15673 2.31565,0.0719 2.45775,0.10948 2.53756,0.67146 0.08,0.56317 -0.006,0.59551 -1.5875,0.59892 -2.56445,0.006 -2.86267,0.14298 -2.86267,1.31931 0,1.10526 0.3405,1.31254 2.1672,1.3193 1.04783,0.004 1.57138,0.4455 0.97555,0.82289 -0.20054,0.12703 -0.9897,0.23278 -1.75369,0.23501 l -1.38906,0.004 v 1.70909 1.70909 l 2.18281,0.0769 c 1.72974,0.0609 2.18282,0.15922 2.18282,0.47372 0,0.32183 -0.50878,0.41109 -2.69079,0.47204 -1.47994,0.0413 -2.75456,-0.028 -2.8325,-0.15412 z m 7.32319,0.007 c -0.20882,-0.13601 -0.23274,-0.33918 -0.0702,-0.59621 0.35455,-0.56064 0.31833,-6.78802 -0.0434,-7.46394 -0.24346,-0.45491 -0.20995,-0.62142 0.18286,-0.90865 0.60199,-0.44019 0.69039,-0.43835 1.32142,0.0274 0.41165,0.30382 0.44794,0.44562 0.18286,0.71437 -0.23109,0.2343 -0.33073,1.39219 -0.33073,3.84357 v 3.50826 l 2.18282,0.0769 c 1.72973,0.0609 2.18281,0.15922 2.18281,0.47372 0,0.32185 -0.50017,0.40955 -2.64583,0.46391 -1.45521,0.0369 -2.78838,-0.0258 -2.9626,-0.13927 z m 11.46068,-0.009 c -0.0818,-0.13243 -0.1103,-2.7697 -0.0632,-5.86061 0.0678,-4.45583 0.16221,-5.66836 0.45557,-5.85411 0.4962,-0.31417 7.40843,-0.30085 7.90842,0.0152 0.78154,0.49411 -0.14713,0.78036 -2.7788,0.85652 l -2.64295,0.0765 -0.0769,2.18282 -0.0768,2.18281 1.92893,0.004 c 1.06091,0.002 2.10652,0.11633 2.32359,0.25356 0.76054,0.48084 -0.20318,0.91974 -2.24603,1.0229 l -1.96662,0.0993 -0.0754,2.55123 -0.0754,2.55124 -1.23281,0.0797 c -0.67804,0.0438 -1.29976,-0.0287 -1.38161,-0.16112 z m 9.67888,-0.56489 c -0.41507,-0.56142 -0.61906,-1.318 -0.73119,-2.71198 -0.0855,-1.06334 -0.3311,-2.67918 -0.54571,-3.59075 -0.2146,-0.91157 -0.31765,-1.77477 -0.22899,-1.91823 0.0887,-0.14345 0.49747,-0.26082 0.90847,-0.26082 0.94481,0 1.06523,0.41459 1.06997,3.68363 0.005,3.18874 0.51289,4.50132 1.74703,4.51162 0.59135,0.005 1.03257,-0.23097 1.5955,-0.85307 1.10133,-1.21708 1.95275,-2.97166 1.95275,-4.02415 0,-0.49445 0.17859,-1.07759 0.39687,-1.29587 0.21828,-0.21828 0.39688,-0.67923 0.39688,-1.02432 0,-0.84521 0.50725,-1.34542 0.97266,-0.95916 0.47016,0.3902 0.44358,0.76732 -0.17891,2.53843 -0.29104,0.82807 -0.52917,1.77341 -0.52917,2.10075 0,0.32735 -0.23812,0.72262 -0.52917,0.87838 -0.3122,0.16708 -0.52916,0.55399 -0.52916,0.94365 0,0.36325 -0.1786,0.72899 -0.39688,0.81275 -0.21828,0.0838 -0.39687,0.29576 -0.39687,0.47111 0,0.71673 -1.53474,1.47665 -2.98224,1.47665 -1.26061,0 -1.4794,-0.0855 -1.99184,-0.77863 z m 9.45579,0.72174 c -0.009,-0.0415 -0.0387,-2.12793 -0.0661,-4.63657 -0.0393,-3.58974 0.0251,-4.58996 0.30242,-4.69636 0.1938,-0.0744 1.39962,-0.13518 2.67958,-0.13518 1.71475,0 2.41137,0.1014 2.64698,0.38529 0.57312,0.69057 0.0213,0.93763 -2.09436,0.93763 -2.19881,0 -2.39394,0.11607 -2.39394,1.42393 0,0.89221 0.5098,1.2219 1.88938,1.2219 1.14192,0 1.83022,0.33735 1.45463,0.71294 -0.0817,0.0817 -0.83777,0.22261 -1.68014,0.31312 l -1.53158,0.16456 v 1.5875 1.5875 l 2.11667,0.13229 c 1.64629,0.10289 2.11666,0.22049 2.11666,0.52917 0,0.32206 -0.51123,0.41109 -2.71198,0.47227 -1.49159,0.0415 -2.71927,0.0415 -2.72818,0 z m 9.3723,-0.33999 c -0.0838,-0.21828 -0.40783,-0.39688 -0.72016,-0.39688 -0.65785,0 -2.02135,-1.33426 -2.02135,-1.978 0,-0.24092 -0.10793,-0.6397 -0.23984,-0.88618 -0.29569,-0.5525 0.18018,-2.55683 0.84914,-3.57654 0.26236,-0.39992 0.79814,-0.86511 1.19063,-1.03376 0.39248,-0.16864 0.93854,-0.53322 1.21347,-0.81017 0.41265,-0.4157 0.78924,-0.48513 2.15851,-0.39794 1.44319,0.0919 1.77303,0.21745 2.53914,0.96646 0.70507,0.68934 0.80547,0.90722 0.50392,1.09359 -0.24347,0.15047 -0.72943,0.0527 -1.37482,-0.27653 -1.32715,-0.67706 -2.36239,-0.64204 -3.88901,0.13156 -1.71372,0.86841 -1.9957,1.2805 -2.01157,2.9398 -0.0149,1.55367 0.512,2.32779 1.80515,2.65235 0.37024,0.0929 0.81168,0.33586 0.98099,0.53986 0.17826,0.2148 0.79533,0.37092 1.46606,0.37092 h 1.15823 v -1.70418 c 0,-1.81922 0.19924,-2.14016 1.17638,-1.89491 0.57642,0.14467 0.61217,0.26626 0.54178,1.84272 -0.1194,2.67413 -0.26556,2.8147 -2.9264,2.8147 -1.75411,0 -2.28141,-0.0872 -2.40025,-0.39687 z m 8.43384,-0.11598 c -1.58428,-0.88555 -2.00282,-1.68878 -1.84548,-3.54168 0.1983,-2.33534 0.74732,-3.20437 2.99638,-4.74286 0.87109,-0.59589 1.35273,-0.72761 2.66047,-0.72761 1.33636,0 1.75105,0.11868 2.54239,0.72761 1.63031,1.25448 2.32918,3.74407 1.39701,4.97651 -0.21365,0.28248 -0.39225,0.78522 -0.39688,1.11721 -0.005,0.33199 -0.187,0.67215 -0.40528,0.75591 -0.21829,0.0838 -0.39688,0.31815 -0.39688,0.52086 0,0.20271 -0.10085,0.36857 -0.2241,0.36857 -0.12325,0 -0.49866,0.23812 -0.83423,0.52917 -0.8332,0.72262 -4.21182,0.73265 -5.4934,0.0163 z m 4.89203,-1.07465 c 0.37,-0.29104 0.82581,-0.52916 1.0129,-0.52916 0.1871,0 0.40509,-0.32743 0.48444,-0.72761 0.55538,-2.80107 0.46107,-3.39982 -0.73956,-4.69533 -0.59958,-0.64696 -0.8215,-0.71674 -1.93812,-0.6094 -1.81024,0.17401 -3.35006,1.22892 -4.02674,2.75866 -0.53025,1.19873 -0.53275,1.26744 -0.0813,2.23714 0.25617,0.55024 0.73366,1.12506 1.06108,1.27739 0.32742,0.15233 0.59531,0.39858 0.59531,0.54722 0,0.15174 0.6489,0.27026 1.47963,0.27026 1.07899,0 1.66177,-0.14328 2.15234,-0.52917 z M 44.311475,243.50249 c -0.60528,-0.38267 0.016,-0.83674 1.36384,-0.99677 0.86333,-0.10251 1.30811,-0.33434 1.79609,-0.93618 0.35673,-0.43997 0.63242,-1.01475 0.61264,-1.27731 -0.0367,-0.48655 -1.57455,-2.05459 -2.05499,-2.09525 -0.14552,-0.0123 -0.54699,-0.37958 -0.89214,-0.81614 -0.77851,-0.98468 -0.65436,-2.2053 0.33261,-3.27027 0.56284,-0.60731 0.89674,-0.73027 1.98309,-0.73027 0.71847,0 1.442,0.0839 1.60786,0.18638 0.54817,0.33879 -0.25734,0.93246 -1.27788,0.94182 -1.87665,0.0172 -2.90875,1.78623 -1.42281,2.43869 0.40018,0.17572 0.82281,0.47082 0.93919,0.65579 0.11637,0.18496 0.33044,0.3363 0.47571,0.3363 0.14527,0 0.55231,0.32742 0.90453,0.7276 0.85352,0.96974 0.93375,2.95376 0.12796,3.16448 -0.29104,0.0761 -0.52916,0.24925 -0.52916,0.38474 0,0.1355 -0.31505,0.53833 -0.7001,0.89519 -0.73994,0.68575 -2.47236,0.89324 -3.26644,0.3912 z m 15.5555,-0.0975 c -0.1953,-0.1953 -0.62053,-0.49714 -0.94495,-0.67077 -0.32441,-0.17362 -0.59363,-0.51984 -0.59826,-0.76939 -0.005,-0.24954 -0.18322,-0.68482 -0.39688,-0.9673 -0.21365,-0.28247 -0.38846,-0.7928 -0.38846,-1.13406 0,-0.61342 -0.0291,-0.61961 -2.56344,-0.54474 l -2.56345,0.0757 -0.23137,0.92604 c -0.12726,0.50932 -0.38007,1.0451 -0.56181,1.19062 -0.18173,0.14552 -0.40861,0.47294 -0.50417,0.72761 -0.19392,0.51682 -1.37461,0.63682 -1.66368,0.16909 -0.10025,-0.1622 0.18919,-0.61044 0.64584,-1.00018 0.45512,-0.38845 0.8275,-0.91219 0.8275,-1.16388 0,-0.25168 0.23812,-0.6615 0.52917,-0.9107 0.29104,-0.24919 0.52916,-0.73542 0.52916,-1.08051 0,-0.40491 0.18767,-0.6765 0.52917,-0.76581 0.31433,-0.0822 0.52917,-0.36089 0.52917,-0.68646 0,-0.57034 1.04252,-2.29565 1.38906,-2.29881 0.10914,-0.001 0.19844,-0.23019 0.19844,-0.50933 0,-0.91124 0.30968,-1.34456 0.96089,-1.34456 0.70758,0 1.15577,0.81652 1.15577,2.10558 0,0.42101 0.17356,0.81482 0.39688,0.90052 0.21828,0.0838 0.39687,0.3408 0.39687,0.5712 0,0.2304 0.25905,0.91874 0.57566,1.52966 1.13779,2.19543 1.27643,2.52245 1.27643,3.01093 0,1.21584 1.57485,2.24659 1.94776,1.27482 0.0838,-0.21828 0.33462,-0.39688 0.55748,-0.39688 0.26997,0 0.40517,-0.25404 0.40517,-0.76135 0,-0.41874 0.18606,-0.91576 0.41346,-1.10449 0.33468,-0.27776 0.39655,-0.82582 0.32471,-2.87667 -0.0488,-1.39344 -0.14557,-2.71212 -0.21502,-2.9304 -0.0879,-0.27615 0.0951,-0.42235 0.60133,-0.4806 l 0.72761,-0.0837 v 2.94251 c 0,2.39923 -0.0998,3.16151 -0.54036,4.12866 -0.62103,1.36324 -1.29331,2.2244 -1.73654,2.2244 -0.16897,0 -0.36949,0.23812 -0.4456,0.52916 -0.15945,0.60972 -1.03088,0.70675 -1.56354,0.17408 z m -3.34461,-6.1272 c -0.0495,-0.29104 -0.24702,-0.70776 -0.4389,-0.92604 -0.19188,-0.21828 -0.3895,-0.68521 -0.43914,-1.03761 -0.12045,-0.85494 -0.6589,-0.99474 -0.90022,-0.23373 -0.10637,0.33543 -0.46972,1.04775 -0.80745,1.58294 -0.71993,1.14084 -0.5741,1.26966 1.35281,1.19492 1.1634,-0.0451 1.31207,-0.11512 1.2329,-0.58048 z m 16.73397,6.17757 c -0.27898,-0.4514 0.68204,-1.03501 1.60284,-0.97338 1.02494,0.0686 2.25842,-1.0128 2.25842,-1.97997 0,-0.70065 -1.41547,-2.29457 -2.03981,-2.29695 -0.61573,-0.002 -1.66435,-1.42938 -1.66435,-2.26495 0,-1.21093 1.61043,-2.57004 3.0867,-2.60498 1.23114,-0.0291 1.55097,0.15411 1.31991,0.75625 -0.10874,0.28339 -0.51699,0.40828 -1.33458,0.40828 -1.09168,0 -1.19057,0.0577 -1.35093,0.78781 -0.21484,0.97813 0.0436,1.85803 0.54569,1.85803 0.20847,0 0.37904,0.12525 0.37904,0.27834 0,0.15309 0.35455,0.40195 0.7879,0.55301 0.58668,0.20452 0.85658,0.52196 1.05686,1.24301 0.35879,1.29177 0.34453,1.52908 -0.15511,2.582 -0.24843,0.52352 -0.62283,0.89989 -0.89519,0.89989 -0.25749,0 -0.53043,0.23812 -0.60654,0.52916 -0.11526,0.44078 -0.36089,0.52917 -1.47045,0.52917 -0.73264,0 -1.41682,-0.13713 -1.5204,-0.30472 z m 46.196815,0.0471 c -0.59627,-0.37697 0.0257,-0.85564 1.23655,-0.95171 0.75957,-0.0603 1.2212,-0.31153 1.86693,-1.01614 0.74892,-0.81721 0.82087,-1.01721 0.56669,-1.57508 -0.16013,-0.35146 -0.57568,-0.76865 -0.92343,-0.9271 -0.34776,-0.15845 -0.63229,-0.4097 -0.63229,-0.55834 0,-0.14864 -0.11802,-0.27026 -0.26228,-0.27026 -0.41733,0 -1.85475,-1.62304 -1.85077,-2.08976 0.007,-0.82671 0.32734,-1.61441 0.65643,-1.61441 0.18356,0 0.50367,-0.25592 0.71136,-0.56872 0.65682,-0.98922 3.88672,-0.71184 3.27305,0.28109 -0.0978,0.1582 -0.64699,0.28763 -1.22049,0.28763 -1.1367,0 -2.11477,0.7145 -2.08256,1.52136 0.0102,0.25466 0.7543,0.99917 1.65364,1.65447 1.61144,1.17416 1.63633,1.21164 1.71524,2.58265 0.0613,1.06533 -0.0161,1.42811 -0.33073,1.54883 -0.22594,0.0867 -0.4108,0.26968 -0.4108,0.40661 0,0.13693 -0.32742,0.53715 -0.72761,0.88937 -0.76858,0.67648 -2.46908,0.88623 -3.23893,0.39951 z m 37.86545,0.0186 c -0.59052,-0.37404 -0.10559,-0.77586 1.16656,-0.96663 1.25106,-0.18762 2.50536,-1.28703 2.50536,-2.19599 0,-0.47534 -1.61696,-2.15459 -2.07467,-2.15459 -0.1475,0 -0.52545,-0.32708 -0.8399,-0.72684 -0.72172,-0.91751 -0.55275,-2.37006 0.3946,-3.39226 0.52561,-0.56715 0.90111,-0.70806 1.92808,-0.72356 1.61576,-0.0244 2.19751,0.27742 1.50744,0.782 -0.26814,0.19607 -0.85172,0.36045 -1.29685,0.3653 -0.98996,0.0108 -1.99995,0.80285 -1.99995,1.56846 0,0.39723 0.27659,0.68197 0.92604,0.95333 0.50933,0.2128 0.92604,0.50439 0.92604,0.64795 0,0.14357 0.18974,0.26104 0.42165,0.26104 0.2319,0 0.48176,0.22989 0.55524,0.51086 0.0735,0.28098 0.30045,0.5749 0.50439,0.65316 0.23395,0.0898 0.37081,0.53962 0.37081,1.21879 0,0.93123 -0.16396,1.23586 -1.21491,2.25726 -1.04603,1.01663 -1.36784,1.1802 -2.31511,1.17671 -0.6051,-0.002 -1.26427,-0.10798 -1.46482,-0.235 z m -135.805685,-1.0042 c -0.0496,-0.11659 -0.0306,-2.83134 0.0422,-6.0328 l 0.13229,-5.82084 2.83751,-0.075 2.8375,-0.075 1.19739,1.12679 c 1.05798,0.9956 1.1974,1.25859 1.1974,2.2588 0,0.6226 -0.21436,1.53196 -0.47635,2.02078 -0.46943,0.87584 -1.80596,2.28431 -2.16764,2.28431 -0.10201,0 -0.46002,0.23812 -0.7956,0.52917 -0.33557,0.29104 -0.94342,0.52916 -1.35077,0.52916 -0.72373,0 -0.74244,0.0378 -0.81941,1.65365 l -0.0788,1.65364 -1.23281,0.0797 c -0.67804,0.0438 -1.27335,-0.0157 -1.32291,-0.13229 z m 4.94986,-6.17933 c 0.25363,-0.28026 0.51532,-1.07631 0.58153,-1.76901 0.10298,-1.07741 0.0227,-1.36462 -0.55511,-1.98706 -0.45197,-0.48683 -0.94234,-0.7276 -1.48188,-0.7276 l -0.80639,-1e-5 v 2.60174 c 0,1.43095 0.0697,2.67138 0.15479,2.75652 0.24626,0.24626 1.60196,-0.31646 2.10706,-0.87459 z m 2.63269,6.09925 c -0.0901,-0.14575 0.19297,-0.59224 0.629,-0.99219 0.43603,-0.39995 0.91914,-1.02484 1.07358,-1.38865 0.15443,-0.3638 0.40013,-0.86981 0.546,-1.12448 0.14587,-0.25466 0.38514,-0.67138 0.53172,-0.92604 0.14658,-0.25466 0.41196,-0.76067 0.58974,-1.12448 0.17778,-0.3638 0.47457,-0.75667 0.65954,-0.87304 0.18496,-0.11637 0.3363,-0.44753 0.3363,-0.73591 0,-0.28838 0.17859,-0.59285 0.39687,-0.67661 0.21829,-0.0838 0.39688,-0.36795 0.39688,-0.63152 0,-0.88306 0.31624,-1.31625 0.9609,-1.31625 0.68158,0 1.15577,0.8096 1.15577,1.97329 0,0.33876 0.17859,0.68446 0.39687,0.76823 0.21828,0.0838 0.39688,0.43546 0.39688,0.78157 0,0.3461 0.23812,0.90384 0.52916,1.23941 0.29104,0.33557 0.52917,0.88957 0.52917,1.23111 0,0.34153 0.1096,0.62097 0.24356,0.62097 0.13396,0 0.32424,0.38696 0.42285,0.8599 0.0986,0.47294 0.35727,1.14052 0.57482,1.48349 0.47329,0.74619 0.16406,1.18145 -0.74769,1.05245 -0.4898,-0.0693 -0.64385,-0.27545 -0.70874,-0.94844 -0.0456,-0.47294 -0.18278,-0.8599 -0.30485,-0.8599 -0.12206,0 -0.34645,-0.35718 -0.49864,-0.79375 l -0.2767,-0.79375 h -2.22171 c -2.40829,-1e-5 -3.09748,0.3452 -3.09748,1.55149 0,0.98215 -0.76882,1.88809 -1.60232,1.88809 -0.41124,0 -0.8214,-0.11925 -0.91148,-0.265 z m 7.15076,-4.77302 c 0.23553,-0.38109 -1.05199,-2.76719 -1.49315,-2.76719 -0.19714,0 -0.39988,0.23812 -0.45053,0.52917 -0.0507,0.29104 -0.23825,0.64822 -0.4169,0.79375 -0.4264,0.34734 -0.72966,1.17517 -0.54184,1.47908 0.20613,0.33352 2.69322,0.30369 2.90242,-0.0348 z m 4.81909,4.85474 c -0.0654,-0.11749 -0.0955,-2.17814 -0.0668,-4.57923 l 0.0521,-4.36563 h 0.76945 0.76946 l -0.01,4.49792 -0.01,4.49791 -0.69287,0.0813 c -0.38107,0.0447 -0.74638,-0.0148 -0.81178,-0.13229 z m 25.73353,-4.43295 v -4.63412 l 0.64321,-0.16143 c 0.66676,-0.16735 4.9075,0.0576 5.12157,0.27169 0.0668,0.0668 0.0509,0.30515 -0.0353,0.52971 -0.12005,0.31286 -0.57912,0.40828 -1.96414,0.40828 -1.93023,0 -2.44247,0.25684 -2.44247,1.22465 0,0.92224 0.69783,1.42119 1.98766,1.42119 2.14336,0 1.67214,0.96799 -0.53917,1.10755 l -1.3162,0.0831 v 1.5875 1.5875 l 2.11667,0.13229 c 1.64629,0.1029 2.11667,0.22049 2.11667,0.52917 0,0.32351 -0.5258,0.41076 -2.84428,0.47197 l -2.84427,0.0751 z m 17.79842,-1.21741 c 0.0586,-4.80899 0.13994,-5.87714 0.46291,-6.08136 0.43062,-0.27229 6.31429,-0.35252 6.98474,-0.0953 0.23019,0.0883 0.41852,0.31372 0.41852,0.50086 0,0.53245 -0.64826,0.66146 -3.32389,0.66146 -2.85846,0 -2.86177,0.003 -2.71102,2.65998 l 0.0818,1.44106 1.32292,0.0665 c 2.09308,0.10523 3.04271,0.32631 3.04271,0.70837 0,0.47169 -0.84337,0.67234 -2.84427,0.67672 l -1.65365,0.004 v 2.64583 2.64584 h -0.92593 -0.92593 z m 9.32138,5.04156 c -0.95679,-0.67685 -1.07257,-0.88422 -1.20665,-2.16113 -0.17028,-1.62158 0.0958,-3.4675 0.52023,-3.60897 0.15925,-0.0531 0.28954,-0.24443 0.28954,-0.42522 0,-0.36404 1.09424,-1.47928 1.45143,-1.47928 0.12468,0 0.45693,-0.20836 0.73833,-0.46302 0.38678,-0.35003 0.97295,-0.46302 2.40208,-0.46302 1.60769,0 1.979505,0.089 2.485765,0.59531 0.32743,0.32742 0.70164,0.59531 0.83159,0.59531 0.29409,0 0.5661,0.63423 0.81743,1.90593 0.20573,1.04096 -0.23285,3.29969 -0.69995,3.60478 -0.14975,0.0978 -0.35346,0.50947 -0.4527,0.9148 -0.10532,0.43023 -0.44195,0.83639 -0.80878,0.97587 -0.345605,0.13139 -0.706495,0.36531 -0.801985,0.5198 -0.10149,0.16423 -1.07382,0.2719 -2.3408,0.25922 -1.93468,-0.0194 -2.28075,-0.10201 -3.22553,-0.77038 z m 5.25505,-0.66314 c 0.0838,-0.21828 0.30486,-0.39893 0.49133,-0.40145 0.18647,-0.003 0.593755,-0.2735 0.905085,-0.60219 0.47089,-0.49717 0.5542,-0.86628 0.49558,-2.19584 -0.0387,-0.87901 -0.21772,-1.83402 -0.39771,-2.12223 -0.785495,-1.25776 -3.498705,-1.91643 -4.235795,-1.02829 -0.18116,0.21828 -0.61246,0.39687 -0.95844,0.39687 -0.38278,0 -0.62906,0.15539 -0.62906,0.39688 0,0.21828 -0.23813,0.635 -0.52917,0.92604 -0.38806,0.38806 -0.52917,0.88194 -0.52917,1.85208 0,1.34494 0.42133,2.0802 1.40928,2.45931 0.24354,0.0935 0.44281,0.29272 0.44281,0.44281 0,0.159 0.7059,0.27288 1.69148,0.27288 1.25947,0 1.73038,-0.10136 1.84378,-0.39687 z m 5.027735,1.06002 c -0.0912,-0.23777 -0.0312,-0.72797 0.13348,-1.08934 0.17537,-0.3849 0.29936,-2.13133 0.29936,-4.21646 0,-4.02289 -0.23664,-3.66629 2.36317,-3.56103 1.49281,0.0605 2.66391,1.05758 2.66391,2.26819 0,0.83384 -1.205,2.49591 -1.80953,2.49591 -0.16892,0 -0.30713,0.0983 -0.30713,0.21846 0,0.29875 1.08579,1.25319 1.65364,1.4536 0.25466,0.0899 0.46302,0.33284 0.46302,0.53991 0,0.20707 0.32743,0.45615 0.72761,0.55351 0.40018,0.0974 0.91109,0.41373 1.13535,0.70305 0.49034,0.63258 1.19405,0.44456 1.41465,-0.37798 0.25295,-0.94315 0.1828,-6.17633 -0.0925,-6.90042 -0.13996,-0.36812 -0.16815,-0.72266 -0.0627,-0.78786 0.38665,-0.23896 3.65857,-0.38125 4.81505,-0.2094 0.80332,0.11937 1.19063,0.30603 1.19063,0.5738 0,0.31127 -0.48507,0.4254 -2.24896,0.52916 l -2.24896,0.13229 -0.0844,1.03141 c -0.10198,1.24543 0.18311,1.47263 1.85477,1.47809 1.16814,0.004 1.81282,0.34556 1.41061,0.74777 -0.0986,0.0986 -0.85471,0.23955 -1.68014,0.31313 l -1.50079,0.13377 -0.0788,1.65365 -0.0788,1.65364 h 2.0969 c 1.48232,0 2.1877,0.10942 2.40672,0.37332 0.52372,0.63104 -0.0564,0.72236 -4.14994,0.6532 -3.89498,-0.0658 -3.90128,-0.0669 -4.61299,-0.81079 -0.39198,-0.40969 -0.95078,-0.74489 -1.24177,-0.74489 -0.29099,0 -0.68466,-0.21043 -0.87481,-0.46762 -0.19015,-0.25719 -0.67062,-0.67499 -1.06769,-0.92845 -0.70631,-0.45083 -0.72486,-0.44786 -0.85552,0.13689 -0.0735,0.32875 -0.1653,1.07397 -0.20409,1.65605 -0.058,0.87075 -0.17624,1.07335 -0.66701,1.14304 -0.36584,0.0519 -0.66065,-0.0825 -0.76239,-0.3476 z m 2.52796,-4.73823 c 0.16931,-0.204 0.60061,-0.4444 0.95844,-0.53421 1.40868,-0.35355 0.34128,-2.65671 -1.15136,-2.48434 -0.65038,0.0751 -0.71862,0.19305 -0.79354,1.37147 -0.12039,1.8934 0.25788,2.52497 0.98646,1.64708 z m 21.17236,4.93498 c -0.009,-0.10914 -0.0385,-1.92484 -0.0661,-4.0349 l -0.0503,-3.83646 -1.18826,-0.13229 c -0.81348,-0.0906 -1.21383,-0.26715 -1.26934,-0.55988 -0.0659,-0.3473 0.25666,-0.45897 1.71742,-0.59467 2.43084,-0.2258 5.59598,-0.0486 5.97934,0.33475 0.47315,0.47316 -0.24464,0.81095 -1.73343,0.81575 -2.03848,0.007 -2.3151,0.47087 -2.3151,3.88582 0,2.29269 0.0851,2.91743 0.4525,3.32345 0.39036,0.43134 0.39944,0.53357 0.0661,0.74439 -0.46552,0.29445 -1.57063,0.33195 -1.59283,0.054 z m 3.88691,-0.0102 c -0.0709,-0.11473 0.27925,-0.60771 0.77813,-1.09549 0.49889,-0.48779 0.90706,-1.08183 0.90706,-1.3201 0,-0.23826 0.23813,-0.63709 0.52917,-0.88629 0.29104,-0.2492 0.52917,-0.69621 0.52917,-0.99337 0,-0.29715 0.20836,-0.62574 0.46302,-0.73019 0.25466,-0.10445 0.49553,-0.48123 0.53527,-0.83728 0.0397,-0.35606 0.2481,-0.84168 0.46302,-1.07917 0.21492,-0.23749 0.39077,-0.55851 0.39077,-0.71339 0,-0.15487 0.17859,-0.35012 0.39688,-0.43388 0.21828,-0.0838 0.39687,-0.45742 0.39687,-0.83036 0,-0.77004 0.65025,-1.14442 1.29273,-0.7443 0.23489,0.14627 0.54826,0.73077 0.69638,1.29888 0.14813,0.5681 0.41602,1.29298 0.59531,1.61084 0.1793,0.31785 0.326,0.81684 0.326,1.10886 0,0.29202 0.11137,0.59978 0.2475,0.68391 0.34104,0.21078 1.60458,3.01531 1.60458,3.56149 0,0.24435 0.1325,0.57678 0.29445,0.73872 0.38809,0.38809 0.0706,0.86972 -0.57329,0.86972 -0.49079,0 -1.24658,-1.263 -1.70202,-2.84427 -0.16127,-0.5599 -0.31147,-0.59531 -2.52558,-0.59531 -2.51979,0 -2.90189,0.20784 -2.90189,1.57841 0,0.30518 -0.17406,0.62166 -0.3868,0.7033 -0.21275,0.0816 -0.4589,0.37555 -0.547,0.65315 -0.16245,0.51182 -1.53738,0.73679 -1.80973,0.29612 z m 7.24144,-5.22366 c 0,-0.36838 -0.16689,-0.73381 -0.37086,-0.81208 -0.20398,-0.0783 -0.44893,-0.55843 -0.54435,-1.06702 -0.18199,-0.97011 -0.72965,-1.10127 -0.90122,-0.21585 -0.0532,0.27431 -0.39079,0.88438 -0.75029,1.35571 -0.3595,0.47133 -0.57688,0.98117 -0.48305,1.13298 0.0938,0.15181 0.81841,0.27602 1.61018,0.27602 1.36394,0 1.43959,-0.0352 1.43959,-0.66976 z m 5.00489,5.216 c -0.0122,-0.0993 -0.0265,-2.14515 -0.0318,-4.54624 l -0.01,-4.36563 h 0.75943 0.75944 v 3.96875 3.96875 l 1.84106,0.0795 c 1.01258,0.0437 1.98687,0.20052 2.16511,0.34844 0.22957,0.19053 0.48349,0.1095 0.87092,-0.27793 0.489,-0.48901 0.54686,-0.867 0.54686,-3.57236 0,-1.66401 -0.11451,-3.32667 -0.25447,-3.6948 -0.1449,-0.38111 -0.15407,-0.73136 -0.0213,-0.81342 0.51492,-0.31824 5.53871,-0.27129 5.86606,0.0548 0.53622,0.53417 0.0428,0.72475 -2.23776,0.8643 l -2.1619,0.13229 -0.0844,1.03141 c -0.10198,1.24543 0.18311,1.47263 1.85477,1.47809 1.16814,0.004 1.81282,0.34556 1.41061,0.74777 -0.0986,0.0986 -0.85471,0.23955 -1.68014,0.31313 l -1.50079,0.13377 v 1.5875 1.5875 l 2.1619,0.13229 c 2.19669,0.13442 2.65237,0.28188 2.35551,0.76221 -0.18638,0.30157 -12.57251,0.38003 -12.6094,0.0799 z M 1.9759252,221.0063 v -2.11702 H 99.999015 198.02211 l 0.13448,0.59531 c 0.074,0.32742 0.106,1.25016 0.0712,2.05052 l -0.0633,1.45521 -98.09427,0.0665 -98.0942848,0.0665 z M 125.40406,213.59761 c -0.0899,-0.14552 -0.74478,-0.26458 -1.45521,-0.26458 -0.71042,0 -1.36471,-0.11817 -1.45397,-0.26259 -0.19605,-0.31722 -0.7479,-3.41297 -0.70782,-3.97075 0.12403,-1.72617 0.59342,-3.81592 0.94415,-4.20347 0.23314,-0.25762 0.42389,-0.71234 0.42389,-1.01049 0,-0.29814 0.1786,-0.6903 0.39688,-0.87145 0.27686,-0.22978 0.39687,-0.83965 0.39687,-2.01677 0,-1.76333 -0.17832,-2.04536 -0.73234,-1.15823 -0.23946,0.38343 -0.61702,0.52916 -1.37095,0.52916 -0.57226,0 -1.10501,0.10442 -1.18388,0.23204 -0.0789,0.12763 -0.70009,0.37222 -1.38047,0.54354 -0.68038,0.17132 -1.4828,0.48362 -1.78316,0.694 -0.30036,0.21038 -0.88099,0.38251 -1.29029,0.38251 -0.40931,0 -1.05685,0.20486 -1.43899,0.45525 -0.59266,0.38832 -1.3854,0.45403 -5.39261,0.44699 -4.88696,-0.009 -5.11718,-0.0491 -7.90209,-1.38964 -1.2385,-0.59618 -4.968645,-4.28801 -5.178885,-5.1257 -0.0933,-0.37191 -0.13047,-2.26743 -0.0825,-4.21228 l 0.0872,-3.53608 0.99218,-1.52649 c 0.54571,-0.83957 0.99219,-1.58754 0.99219,-1.66216 0,-0.29367 3.856875,-4.1002 4.295475,-4.2394 0.25687,-0.0815 0.46703,-0.31881 0.46703,-0.52728 0,-0.20848 0.10085,-0.37905 0.2241,-0.37905 0.12325,0 0.49866,-0.23812 0.83423,-0.52916 0.33558,-0.29105 0.7646,-0.52917 0.95338,-0.52917 0.18879,0 0.43846,-0.14883 0.55483,-0.33073 0.11637,-0.1819 0.47948,-0.47956 0.8069,-0.66146 0.32742,-0.1819 0.8632,-0.47955 1.19062,-0.66146 0.32743,-0.1819 0.69053,-0.47955 0.8069,-0.66145 0.11637,-0.18191 0.49914,-0.33073 0.85059,-0.33073 0.36821,0 0.75901,-0.22425 0.9222,-0.52917 0.15576,-0.29104 0.49438,-0.52917 0.75249,-0.52917 0.25811,0 0.7004,-0.1748 0.98288,-0.38846 0.28247,-0.21365 0.69218,-0.39628 0.91046,-0.40585 0.21829,-0.01 0.87313,-0.24744 1.45521,-0.5286 0.58209,-0.28117 1.19355,-0.51526 1.35882,-0.52019 0.16527,-0.005 0.64152,-0.18684 1.05833,-0.40423 0.41682,-0.21738 1.0931,-0.39597 1.50285,-0.39687 0.40975,-7.9e-4 0.97488,-0.12466 1.25584,-0.27502 0.28096,-0.15037 1.19587,-0.39937 2.03313,-0.55334 2.2193,-0.40811 2.44832,-0.76005 2.44832,-3.76217 0,-1.69804 -0.12618,-2.7363 -0.39524,-3.25221 -0.21739,-0.41682 -0.39598,-1.02947 -0.39688,-1.36146 -7.9e-4,-0.33199 -0.18022,-0.67215 -0.3985,-0.75592 -0.21828,-0.0838 -0.39688,-0.30061 -0.39688,-0.4819 0,-0.31247 -2.76046,-3.05336 -3.07516,-3.05336 -0.0818,0 -0.45139,-0.23813 -0.82139,-0.52917 -0.37,-0.29104 -0.88629,-0.52916 -1.14731,-0.52916 -0.26102,0 -0.63192,-0.14905 -0.82422,-0.33122 -0.19229,-0.18217 -0.97013,-0.54967 -1.72852,-0.81667 -1.27161,-0.44768 -1.65057,-0.4595 -4.87057,-0.15201 -2.77841,0.26533 -3.57619,0.43215 -3.90543,0.81667 -0.22756,0.26577 -0.51734,0.48323 -0.64394,0.48323 -0.12661,0 -0.53293,0.23812 -0.90293,0.52916 -0.77403,0.60886 -3.29411,0.73755 -4.41771,0.22561 -1.340615,-0.61082 -1.489425,-2.91479 -0.338415,-5.23914 0.779455,-1.57402 1.706005,-2.37612 2.756725,-2.38644 0.46801,-0.005 1.24191,-0.17835 1.71979,-0.38613 2.70278,-1.1751 3.67613,-1.3211 9.46783,-1.42011 4.83726,-0.0827 5.86672,-0.0309 6.87917,0.34629 0.65484,0.24394 1.5275,0.50664 1.93924,0.58379 0.41174,0.0771 0.81143,0.30397 0.8882,0.50404 0.0768,0.20007 0.30919,0.36376 0.51646,0.36376 0.20728,0 0.44541,0.17859 0.52917,0.39687 0.0838,0.21829 0.34792,0.39965 0.58701,0.40303 0.51751,0.007 3.21284,2.95763 3.21284,3.51676 0,0.21407 0.17859,0.45776 0.39687,0.54152 0.21828,0.0838 0.39688,0.39532 0.39688,0.69235 0,0.29704 0.23812,0.74396 0.52916,0.99315 0.30712,0.26296 0.52917,0.78051 0.52917,1.23335 0,0.42914 0.1647,0.96823 0.36599,1.19797 0.2013,0.22974 0.49012,1.07255 0.64182,1.87292 0.15171,0.80036 0.40089,1.93145 0.55374,2.51354 0.15285,0.58208 0.28075,2.09238 0.28422,3.35621 0.007,2.45933 0.29799,3.65525 0.89013,3.65525 0.20225,0 0.68145,0.24676 1.06488,0.54837 0.95315,0.74975 0.89765,1.74632 -0.18701,3.35813 l -0.88415,1.31384 -0.18227,4.48999 c -0.10024,2.4695 -0.10201,6.26842 -0.004,8.44206 0.15277,3.38553 0.116,4.0726 -0.2565,4.79295 -0.54472,1.05336 -0.55403,2.52047 -0.0267,4.19854 0.43136,1.37256 0.85711,9.04373 0.56558,10.1906 -0.17292,0.68027 -2.79835,2.88218 -3.43655,2.88218 -0.21224,0 -0.44818,0.23813 -0.52429,0.52917 -0.0812,0.31044 -0.36089,0.52917 -0.6767,0.52917 -0.29607,0 -0.6119,0.11906 -0.70184,0.26458 -0.0899,0.14552 -0.56619,0.26458 -1.05833,0.26458 -0.49215,0 -0.9684,-0.11906 -1.05834,-0.26458 z m -9.26769,-17.89384 c 0.28704,-0.19933 0.73835,-0.36241 1.0029,-0.36241 0.26456,0 0.80361,-0.22766 1.1979,-0.5059 0.39429,-0.27825 1.22291,-0.81552 1.84137,-1.19394 0.61847,-0.37843 1.12448,-0.85664 1.12448,-1.06271 0,-0.20606 0.15022,-0.53199 0.33381,-0.72428 0.1836,-0.1923 0.48598,-0.64728 0.67194,-1.01109 0.4979,-0.97404 0.96145,-1.74879 1.28913,-2.15459 0.15942,-0.19742 0.37834,-0.77567 0.4865,-1.28499 0.10816,-0.50932 0.36003,-1.16089 0.55972,-1.44793 0.47036,-0.67612 0.46447,-1.99372 -0.0119,-2.6739 -0.20626,-0.29447 -0.46266,-1.00259 -0.56978,-1.57359 -0.20904,-1.11427 -0.36413,-1.32429 -1.52893,-2.07042 -1.7653,-1.13078 -7.25392,-0.15447 -9.66665,1.7195 -0.34705,0.26955 -0.94695,0.49009 -1.33312,0.49009 -0.69156,0 -2.2241,0.65909 -2.95419,1.27048 -0.20535,0.17197 -0.99569,0.79049 -1.75631,1.3745 -0.76063,0.58401 -1.56736,1.41842 -1.79274,1.85426 -0.22538,0.43583 -0.49871,0.79243 -0.6074,0.79243 -0.1087,0 -0.34777,0.64577 -0.53127,1.43504 -0.25151,1.08181 -0.26218,1.71678 -0.0434,2.57968 0.30605,1.20687 1.71331,2.96786 2.59546,3.24784 0.28751,0.0913 0.58954,0.33997 0.67118,0.55272 0.0816,0.21274 0.42333,0.3868 0.75932,0.3868 0.33599,0 0.85602,0.1717 1.15562,0.38155 0.97182,0.68068 6.11853,0.66682 7.10636,-0.0191 z m -66.870925,7.83967 c -0.2668,-0.31159 -0.78051,-0.52916 -1.24943,-0.52916 -1.62837,0 -2.42946,-1.90213 -1.33336,-3.16595 0.28672,-0.33059 0.5924,-0.82506 0.67929,-1.09881 0.0869,-0.27376 0.25137,-0.49774 0.36551,-0.49774 0.11415,0 0.27911,-0.92808 0.36658,-2.0624 0.0875,-1.13431 0.34251,-2.41423 0.56675,-2.84427 0.32745,-0.62795 0.40804,-1.82507 0.40935,-6.08089 10e-4,-4.70509 -0.0503,-5.34799 -0.46139,-5.73607 -0.56177,-0.53026 -0.76732,-0.79812 -1.7852,-2.32637 -0.43615,-0.65485 -0.85306,-1.25016 -0.92646,-1.32292 -0.0734,-0.0728 -0.30769,-0.46994 -0.52064,-0.88263 -0.21296,-0.41269 -0.66754,-1.05285 -1.01019,-1.42257 -0.34265,-0.36973 -0.94213,-1.16317 -1.33218,-1.7632 -0.39006,-0.60004 -0.94731,-1.28974 -1.23836,-1.53267 -0.4995,-0.41693 -0.61074,-0.40044 -1.98437,0.29421 -1.63705,0.82786 -4.08935,1.60442 -5.05034,1.59928 -1.30638,-0.007 -5.04889,-1.39743 -6.06216,-2.25226 -1.55696,-1.3135 -3.51356,-3.25581 -3.72467,-3.69745 -0.13911,-0.29104 -0.5571,-1.06495 -0.92887,-1.71979 -1.50417,-2.64951 -2.15607,-5.394 -2.51387,-10.58334 -0.30919,-4.48444 -0.23691,-4.86251 0.89551,-4.68372 1.697,0.26794 5.37183,0.97509 6.40419,1.23236 0.58208,0.14506 1.9513,0.27368 3.04271,0.28582 1.09141,0.0121 2.52016,0.12623 3.175,0.25351 4.84418,0.94157 6.13041,1.76581 8.67314,5.55787 l 0.97578,1.4552 0.0912,3.36462 c 0.0895,3.30399 0.0791,3.37669 -0.5791,4.03489 -0.36865,0.36866 -0.78968,0.67029 -0.93562,0.67029 -0.2524,0 -2.49069,-1.97013 -4.51059,-3.97018 -2.20549,-2.18384 -4.68322,-3.89848 -5.07186,-3.50983 -0.27812,0.27811 -0.0439,0.56995 1.28348,1.59952 1.94066,1.50519 4.82768,4.24043 8.14338,7.71525 1.90287,1.99419 3.95569,5.07377 4.47247,6.70946 0.22907,0.72504 1.10938,0.12519 1.31341,-0.89498 0.27622,-1.38111 0.16804,-3.48152 -0.23726,-4.60654 -0.47525,-1.31916 -0.56331,-13.071 -0.10437,-13.92853 0.33288,-0.622 0.67738,-11.8132 0.40787,-13.24982 l -0.17998,-0.95941 -1.77774,-0.16807 c -0.97775,-0.0924 -2.33588,-0.33964 -3.01807,-0.54935 -0.68219,-0.2097 -1.4381,-0.38127 -1.67981,-0.38127 -0.2417,0 -0.81465,-0.17161 -1.2732,-0.38136 -0.45855,-0.20975 -1.33975,-0.512 -1.95822,-0.67166 -0.61846,-0.15966 -1.12447,-0.38909 -1.12447,-0.50984 0,-0.12076 -0.47299,-0.28299 -1.05109,-0.36053 -0.57809,-0.0775 -1.24144,-0.33134 -1.47411,-0.56401 -0.23266,-0.23266 -0.63806,-0.42302 -0.90089,-0.42302 -0.26283,0 -0.62609,-0.17859 -0.80725,-0.39688 -0.18116,-0.21828 -0.47826,-0.39687 -0.66022,-0.39687 -0.59982,0 -2.89416,-1.11815 -3.87577,-1.88886 -0.53026,-0.41634 -1.08569,-0.75697 -1.23429,-0.75697 -0.1486,0 -0.54819,-0.23622 -0.88797,-0.52492 -0.33978,-0.28871 -1.27263,-0.96074 -2.073,-1.4934 -0.80036,-0.53267 -1.6589,-1.15966 -1.90785,-1.39331 -0.24895,-0.23366 -0.77272,-0.66296 -1.16393,-0.954 -0.39121,-0.29104 -1.77693,-1.59657 -3.07938,-2.90117 l -2.36807,-2.37201 -1.01833,0.58607 c -1.14601,0.65956 -1.90888,0.74378 -2.31283,0.25534 -0.2935,-0.35488 -0.12725,-1.78594 0.20747,-1.78594 0.1109,0 0.35025,-0.35876 0.53187,-0.79726 0.29939,-0.72276 0.26194,-0.89581 -0.40075,-1.85208 -0.40205,-0.58015 -0.83387,-1.05482 -0.9596,-1.05482 -0.12573,0 -0.2286,-0.1786 -0.2286,-0.39688 0,-0.21828 -0.20836,-0.61568 -0.46302,-0.88311 -0.55321,-0.58095 -0.97687,-1.22108 -1.51686,-2.29189 -0.22014,-0.43656 -0.6348398,-1.15094 -0.9215498,-1.5875 -0.48674,-0.74113 -0.6921,-1.14096 -1.73272,-3.37343 -0.22046,-0.47295 -0.51246,-1.03849 -0.64889,-1.25678 -0.33497,-0.5359 -0.98323,-2.09821 -1.20764,-2.91041 -0.10052,-0.3638 -0.33694,-1.01865 -0.52538,-1.45521 -0.54167,-1.25492 -1.4506,-4.51803 -1.4506,-5.20772 0,-0.34521 -0.16124,-0.86252 -0.35831,-1.14955 -0.19931,-0.29032 -0.42519,-1.578533 -0.50904,-2.903153 -0.0829,-1.30968 -0.30198,-2.73843 -0.48684,-3.175 -0.49873,-1.17779 -0.50009,-11.26604 -0.002,-11.86666 0.22371,-0.26955 0.41649,-1.38141 0.50019,-2.88492 0.0749,-1.34548 0.2407,-2.51424 0.36844,-2.59724 0.12775,-0.083 0.36458,-0.91643 0.52631,-1.85208 0.16172,-0.93565 0.4572,-2.02269 0.65661,-2.41565 0.1994,-0.39295 0.36256,-0.95562 0.36256,-1.25037 0,-0.29475 0.23768,-0.92574 0.52817,-1.4022 0.2905,-0.47646 0.53241,-1.10442 0.53759,-1.39546 0.005,-0.29104 0.18421,-0.76028 0.39786,-1.04276 0.21365,-0.28247 0.38846,-0.71438 0.38846,-0.95979 0,-0.24541 0.17094,-0.58806 0.37987,-0.76146 0.20893,-0.17339 0.4547,-0.656 0.54617,-1.07245 0.0915,-0.41645 0.33725,-0.89905 0.54618,-1.07245 0.20892,-0.17339 0.37986,-0.52275 0.37986,-0.77635 0,-0.2536 0.23813,-0.76381 0.52917,-1.13381 0.29104,-0.37 0.52917,-0.86604 0.52917,-1.10232 0,-0.23628 0.17859,-0.49813 0.3968698,-0.58189 0.21828,-0.0838 0.39688,-0.38142 0.39688,-0.66146 0,-0.28004 0.17859,-0.57769 0.39687,-0.66145 0.21828,-0.0838 0.39688,-0.37668 0.39688,-0.65092 0,-0.27424 0.23812,-0.64733 0.52916,-0.82908 0.29104,-0.18176 0.52917,-0.48416 0.52917,-0.67201 0,-0.18784 0.17406,-0.40833 0.3868,-0.48996 0.21275,-0.0816 0.45418,-0.3607 0.53652,-0.62014 0.0823,-0.25943 0.53336,-0.88531 1.00226,-1.39084 0.4689,-0.50552 1.80504,-1.96259 2.96921,-3.23792 1.16417,-1.27534 2.33552,-2.53232 2.60301,-2.7933 0.36166,-0.35286 0.52397,-1.02353 0.63312,-2.61593 l 0.14678,-2.14142 h 0.85879 c 0.77199,0 0.87634,0.0936 1.03251,0.92604 0.22497,1.19921 0.77598,1.19887 2.0827,-10e-4 0.55381,-0.50862 1.06219,-0.92477 1.12974,-0.92477 0.0675,0 0.6157,-0.32742 1.2181,-0.7276 2.17761,-1.4466 2.49137,-1.63345 4.11688,-2.45158 0.90793,-0.45698 1.71863,-0.94063 1.80155,-1.0748 0.0829,-0.13416 0.37335,-0.24394 0.64541,-0.24394 0.27206,0 0.65873,-0.16407 0.85927,-0.36461 0.20054,-0.20054 0.77459,-0.45192 1.27567,-0.55861 0.50108,-0.1067 1.13191,-0.38911 1.40185,-0.62758 0.26994,-0.23846 0.53783,-0.4038 0.59532,-0.36742 0.36089,0.2284 1.24159,-0.0126 1.69201,-0.46303 0.33586,-0.33585 0.89162,-0.53259 1.52135,-0.53854 0.54571,-0.005 1.28985,-0.17953 1.65365,-0.3875 0.3638,-0.20796 1.08145,-0.38234 1.59477,-0.3875 0.51333,-0.005 1.19258,-0.19097 1.50946,-0.41291 0.40598,-0.28436 1.5369,-0.44669 3.82918,-0.54963 1.78918,-0.0803 3.96742,-0.25505 4.84055,-0.38821 2.26027,-0.34473 56.409955,-0.32276 56.623635,0.023 0.0915,0.148 0.23608,13.51574 0.32136,29.70609 0.12593,23.90728 0.0903,29.55797 -0.18957,30.08095 -0.18955,0.35417 -0.49687,1.89901 -0.68294,3.43297 -0.18607,1.53396 -0.47232,3.443863 -0.6361,4.244223 -0.43779,2.13945 -2.07566,7.00298 -3.07402,9.12813 -0.47855,1.01865 -0.94228,2.11276 -1.03052,2.43136 -0.0882,0.3186 -0.69049,1.36971 -1.33832,2.3358 -0.64784,0.9661 -1.17789,1.82314 -1.17789,1.90454 0,0.21508 -2.98784,4.65704 -3.343005,4.96996 -0.16516,0.14552 -0.34376,0.3964 -0.39688,0.55751 -0.34907,1.05868 -8.16364,8.81649 -8.89397,8.82937 -0.1819,0.003 -0.33073,0.11223 -0.33073,0.24227 0,0.13004 -0.83344,0.8059 -1.85209,1.50191 -1.01864,0.69601 -1.84818,1.45281 -1.84342,1.68179 0.005,0.22897 0.55271,0.9521 1.21766,1.60694 0.66495,0.65485 1.37872,1.54782 1.58615,1.98438 0.20743,0.43656 0.67404,1.27 1.0369,1.85208 0.36287,0.58208 0.70017,1.1774 0.74957,1.32292 0.92407,2.72223 0.9597,3.01523 0.94924,7.80521 -0.008,3.74248 -0.0997,5.05051 -0.3888,5.55625 -0.20797,0.3638 -0.38235,0.97282 -0.3875,1.35338 -0.005,0.38056 -0.2475,0.99465 -0.53855,1.36465 -0.29104,0.37 -0.52916,0.8623 -0.52916,1.09401 0,0.23171 -0.10742,0.42129 -0.2387,0.42129 -0.13129,0 -0.36341,0.35773 -0.51583,0.79495 -0.15241,0.43723 -0.69984,1.43182 -1.2165,2.2102 -0.51667,0.77839 -0.93948,1.52198 -0.9396,1.65245 -1.1e-4,0.13045 -0.41306,0.71344 -0.91767,1.29552 -1.37564,1.58686 -1.36906,1.57836 -1.69716,2.19143 -0.57049,1.06597 -5.40313,5.61378 -5.96537,5.61378 -0.10535,0 -0.54877,0.35723 -0.98539,0.79384 -0.43661,0.43662 -1.11088,0.87342 -1.49838,0.97067 -0.38749,0.0973 -0.86305,0.33534 -1.05679,0.52908 -0.19373,0.19373 -0.50412,0.35225 -0.68974,0.35225 -0.18562,0 -0.61205,0.23812 -0.94762,0.52916 -0.33558,0.29104 -0.90997,0.52917 -1.27642,0.52917 -0.36646,0 -0.86926,0.18368 -1.11733,0.40818 -0.24807,0.2245 -0.91127,0.48287 -1.47378,0.57416 -0.56251,0.0913 -1.18109,0.32432 -1.37463,0.51785 -0.19354,0.19354 -0.73034,0.35473 -1.19289,0.35821 -0.46254,0.003 -1.31725,0.13487 -1.89934,0.292 -0.58208,0.15714 -1.89177,0.42873 -2.91041,0.60355 -2.31888,0.39796 -3.0205,0.7546 -3.77031,1.91651 -0.4913,0.76131 -0.59532,1.29354 -0.59532,3.04623 0,1.16806 0.16819,2.73738 0.37374,3.48738 0.4564,1.66525 0.79407,12.02145 0.42373,12.99554 -0.14665,0.38572 -0.54625,0.7309 -0.96891,0.83698 -0.39563,0.0993 -1.02492,0.34002 -1.39842,0.53493 -0.3735,0.19491 -1.10736,0.35512 -1.6308,0.35602 -0.57001,0.001 -1.1964,0.21385 -1.56184,0.53079 -0.43924,0.38096 -0.9899,0.52917 -1.96605,0.52917 -1.02851,0 -1.46534,-0.12778 -1.80901,-0.52917 z m 13.10268,-30.98052 c 0.83733,-0.27769 1.70472,-0.50489 1.92754,-0.50489 0.22282,0 0.66883,-0.16691 0.99113,-0.37091 0.32231,-0.20399 1.00273,-0.45733 1.51205,-0.56297 0.50933,-0.10564 1.1609,-0.35545 1.44794,-0.55514 0.28704,-0.19969 0.77847,-0.36307 1.09208,-0.36307 0.31361,0 0.71841,-0.17859 0.89957,-0.39687 0.18115,-0.21828 0.48143,-0.39688 0.66727,-0.39688 0.18583,0 0.95713,-0.41672 1.71398,-0.92604 0.75685,-0.50932 1.43659,-0.92604 1.51053,-0.92604 0.1276,0 2.1889,-2.16495 4.53447,-4.7625 0.59132,-0.65484 1.27341,-1.60734 1.51575,-2.11667 0.24234,-0.50932 0.66437,-1.36634 0.93785,-1.9045 0.27348,-0.53815 0.49723,-1.14494 0.49723,-1.34841 0,-0.20347 0.18338,-0.73754 0.4075,-1.1868 0.31764,-0.63672 0.41098,-1.82717 0.42328,-5.39846 0.0133,-3.86765 -0.0607,-4.77456 -0.4754,-5.81974 -0.48098,-1.2124 -2.73264,-3.92125 -3.25943,-3.92125 -0.14656,0 -0.41518,-0.23813 -0.59693,-0.52917 -0.40946,-0.65564 -2.34027,-0.7453 -2.84902,-0.13229 -0.18116,0.21828 -0.52316,0.39685 -0.76,0.39682 -0.23684,-3e-5 -1.145,0.22957 -2.01812,0.51021 -3.96723,1.27519 -6.71788,1.78618 -11.32516,2.10387 -1.44917,0.0999 -2.6752,0.31058 -2.77812,0.47734 -0.28832,0.46712 -0.13298,26.47906 0.17392,29.12478 0.0492,0.42411 1.6889,0.21305 3.81009,-0.49042 z m 89.732435,30.76596 c -1.86884,-0.9854 -2.0469,-1.16933 -2.44839,-2.52909 -0.2567,-0.86941 -0.28073,-1.43662 -0.0877,-2.0711 0.14619,-0.48059 0.33239,-1.77083 0.41378,-2.86722 0.0814,-1.09639 0.32318,-2.34655 0.53729,-2.77813 0.32655,-0.65823 0.41234,-3.66296 0.53231,-18.64406 0.0787,-9.82266 0.21393,-20.06203 0.3006,-22.75417 0.10317,-3.20439 0.0265,-6.67657 -0.22194,-10.05417 -0.47448,-6.45021 -0.28208,-9.11217 0.72103,-9.9757 0.7074,-0.60897 2.22097,-1.1328 3.28045,-1.13532 0.34085,-7.9e-4 0.91416,-0.23307 1.27401,-0.51614 0.53064,-0.41739 0.91355,-0.4857 2.02611,-0.36143 0.75451,0.0843 1.55042,0.30659 1.7687,0.49405 0.21828,0.18745 0.7243,0.42253 1.12448,0.5224 0.40018,0.0999 0.7276,0.30292 0.7276,0.4512 0,0.18135 2.01388,0.20129 6.15157,0.0609 3.38336,-0.11479 8.29468,-0.22898 10.91406,-0.25375 6.15712,-0.0582 9.76947,-0.33629 11.20475,-0.86248 1.05678,-0.38742 1.26172,-0.38647 2.51355,0.0116 0.74962,0.23838 1.60107,0.49789 1.89212,0.57669 0.70546,0.19099 1.98437,2.56039 1.98437,3.67638 0,0.48962 -0.23812,1.19295 -0.52917,1.56295 -0.29104,0.37 -0.52916,0.78202 -0.52916,0.9156 0,0.13358 -0.26931,0.49588 -0.59846,0.8051 -0.4534,0.42595 -1.18957,0.63409 -3.0374,0.85876 -1.34142,0.1631 -2.56971,0.21573 -2.72955,0.11695 -0.15983,-0.0988 -1.60601,-0.28534 -3.21374,-0.41458 -1.60774,-0.12924 -3.40902,-0.3658 -4.00285,-0.52571 -1.57496,-0.42409 -19.17584,-0.46458 -19.9194,-0.0458 -0.40413,0.2276 -0.60381,0.6694 -0.71487,1.58176 -0.0848,0.69627 -0.33843,1.91698 -0.56371,2.71267 -0.24815,0.87647 -0.41327,2.54513 -0.4189,4.23334 -0.005,1.53263 -0.17952,3.56051 -0.38758,4.5064 -0.48099,2.1867 -0.50126,5.32316 -0.0415,6.42464 0.19545,0.46827 0.43869,1.29644 0.54055,1.84037 0.20185,1.07787 0.76344,1.52239 1.93097,1.52842 0.40975,0.002 1.27818,0.18949 1.92986,0.41638 0.98885,0.34428 2.06118,0.38531 6.48229,0.24803 7.43346,-0.23082 8.56054,-0.30024 10.05993,-0.61956 1.55841,-0.33189 4.36203,-0.39155 4.8168,-0.1025 0.17538,0.11147 0.62213,0.86505 0.99276,1.67462 0.59312,1.29554 0.63649,1.57918 0.36196,2.3667 -0.66448,1.90613 -1.716,3.42081 -2.3748,3.42081 -0.27942,0 -0.82647,0.20836 -1.21566,0.46302 -0.62738,0.41052 -1.39908,0.45824 -6.80533,0.42084 -4.60565,-0.0319 -6.49512,-0.14516 -7.72179,-0.46302 -1.06586,-0.27619 -2.76631,-0.42084 -4.94733,-0.42084 h -3.32325 l -0.1525,0.99219 c -0.0839,0.5457 -0.32568,1.52797 -0.53736,2.18281 -0.48248,1.49265 -0.96599,8.61838 -0.77876,11.47713 0.0774,1.1819 0.1848,3.99438 0.23865,6.24996 0.0671,2.81163 0.2244,4.43801 0.5002,5.17281 0.36903,0.98318 0.5132,2.84302 0.46128,5.95071 -0.0166,0.9952 -0.17908,1.37022 -0.94554,2.18281 -0.88648,0.93984 -1.39001,1.1268 -2.7223,1.01077 -0.33278,-0.029 -0.91438,0.19063 -1.29245,0.48802 -0.90623,0.71284 -1.78225,0.66085 -3.42058,-0.20302 z M 172.23531,85.075017 c -0.4584,-0.10825 -3.32904,-2.84613 -5.0698,-4.83535 -0.31454,-0.35944 -1.4754,-1.52302 -2.57969,-2.58575 -1.80298,-1.73512 -2.0078,-2.03385 -2.0078,-2.92834 0,-1.04019 0.0795,-1.13708 4.16719,-5.07756 1.31682,-1.26941 1.43142,-2.05896 0.43319,-2.98458 -0.8345,-0.77379 -1.215,-0.63338 -3.11306,1.14875 -0.69745,0.65485 -1.43647,1.28584 -1.64228,1.40221 -0.20581,0.11638 -0.37421,0.31073 -0.37421,0.4319 0,0.43616 -2.15049,2.35925 -2.94982,2.6379 -0.81516,0.28417 -2.07726,0.1452 -2.07726,-0.22872 0,-0.44319 -1.33585,-1.59745 -1.84876,-1.59745 -0.85252,0 -1.85541,0.78289 -1.85541,1.44839 0,0.61635 1.35495,3.37833 2.03843,4.15521 0.42942,0.4881 0.60727,4.88008 0.24183,5.97192 -0.24903,0.74405 -1.11278,0.7724 -2.01567,0.0661 -0.59547,-0.46578 -1.1021,-0.51799 -5.07823,-0.52328 -3.95303,-0.005 -4.45307,0.0441 -4.7625,0.47043 -0.56167,0.77381 -1.60226,1.37577 -2.37827,1.37577 -0.81835,0 -2.0685,-1.16534 -2.0685,-1.92816 0,-0.44069 1.17974,-1.77601 1.56909,-1.77601 0.0929,0 0.37316,-0.34579 0.62282,-0.76843 0.37473,-0.63437 0.45392,-1.4636 0.45392,-4.75329 v -3.98487 l -0.79375,-0.90403 c -0.98486,-1.12169 -1.0012,-1.49323 -0.0661,-1.50404 0.40019,-0.005 0.95873,-0.18323 1.2412,-0.39688 0.64368,-0.48685 1.6687,-0.48344 2.52912,0.008 0.3638,0.20797 1.00876,0.38235 1.43323,0.3875 0.42448,0.005 1.52991,0.4261 2.45651,0.93542 0.92659,0.50932 1.8649,0.92604 2.08512,0.92604 0.58181,0 1.69805,-1.30291 1.69805,-1.982 0,-0.32 -0.24368,-0.80235 -0.54151,-1.07188 -0.29783,-0.26954 -0.72859,-0.88429 -0.95723,-1.36612 -0.61063,-1.2868 -0.21013,-1.98675 2.97969,-5.20763 2.28597,-2.30823 2.75239,-2.91613 2.75239,-3.58724 0,-0.44443 -0.1357,-0.80805 -0.30156,-0.80805 -0.16586,0 -0.44282,-0.19318 -0.61548,-0.4293 -0.43791,-0.59888 -1.2546,-0.28437 -2.54433,0.97982 -0.58186,0.57034 -1.17218,1.03698 -1.31182,1.03698 -0.13964,0 -0.2539,0.12469 -0.2539,0.27708 0,0.1524 -0.52265,0.80724 -1.16146,1.45521 -0.9969,1.0112 -1.31403,1.17813 -2.23825,1.17813 -0.83376,0 -1.22849,-0.16361 -1.74895,-0.7249 -0.3697,-0.3987 -0.67217,-0.80739 -0.67217,-0.90821 0,-0.10082 -0.20836,-0.25018 -0.46302,-0.3319 -0.25466,-0.0817 -0.70115,-0.50612 -0.99219,-0.94311 -0.29104,-0.43699 -0.61014,-0.79487 -0.70911,-0.79528 -0.34669,-0.002 -5.46498,-5.26735 -5.63238,-5.79481 -0.25296,-0.79698 0.12064,-2.40804 0.55841,-2.40804 0.20665,0 0.44426,-0.17859 0.52803,-0.39687 0.0838,-0.21829 0.31815,-0.39688 0.52086,-0.39688 0.20271,0 0.36857,-0.12229 0.36857,-0.27176 0,-0.14946 1.04179,-1.31273 2.3151,-2.58503 1.27331,-1.2723 3.05972,-3.08477 3.96981,-4.02772 3.25668,-3.37427 4.29952,-4.28418 4.72357,-4.12146 0.22653,0.0869 0.5547,0.15805 0.72926,0.15805 0.31343,0 1.95801,1.43386 4.53413,3.95316 2.47654,2.42192 3.52128,3.58592 4.42112,4.92581 l 0.8988,1.33835 -0.50568,0.91061 c -0.27812,0.50084 -0.67143,1.00583 -0.87402,1.1222 -0.20259,0.11637 -0.37339,0.3545 -0.37955,0.52917 -0.006,0.17467 -0.36335,0.60965 -0.79375,0.96662 -0.4304,0.35698 -0.78254,0.73659 -0.78254,0.84357 0,0.10699 -0.35719,0.58559 -0.79375,1.06357 -0.94803,1.03795 -0.95406,1.09188 -0.21687,1.93972 0.36506,0.41986 0.85544,0.66347 1.33555,0.66347 0.73517,0 1.1538,-0.33439 2.45319,-1.95953 0.29104,-0.36401 0.6643,-0.66734 0.82947,-0.67407 0.16516,-0.007 0.50392,-0.323 0.75279,-0.70283 0.24888,-0.37983 0.8681,-1.0942 1.37606,-1.5875 0.74496,-0.72345 1.13334,-0.8969 2.00828,-0.8969 0.72637,0 1.27383,0.17767 1.65717,0.53779 0.45736,0.42968 0.7062,0.48694 1.23774,0.28485 0.3659,-0.13911 0.73731,-0.44065 0.82535,-0.67008 0.088,-0.22943 0.26868,-0.41714 0.40142,-0.41714 0.13274,0 1.10333,0.8417 2.15687,1.87046 l 1.91552,1.87046 -0.73978,0.77216 c -0.69373,0.7241 -0.71631,0.81766 -0.36263,1.50298 0.20744,0.40195 0.54281,0.86058 0.74528,1.01919 0.46779,0.36645 0.18649,2.10802 -0.37532,2.3236 -0.21432,0.0822 -0.38968,0.33187 -0.38968,0.55472 0,0.22285 -0.16324,0.40518 -0.36277,0.40518 -0.19952,0 -0.63664,0.39969 -0.97138,0.88821 -0.33474,0.48852 -0.94609,1.1136 -1.35856,1.38907 -0.41247,0.27546 -0.80998,0.6877 -0.88336,0.91607 -0.0734,0.22838 -0.48941,0.67843 -0.9245,1.00011 -1.4513,1.07299 -0.8364,2.6857 1.02401,2.6857 0.60242,0 1.09664,-0.0893 1.09827,-0.19843 0.006,-0.41113 3.91945,-4.22565 4.48752,-4.3742 0.32637,-0.0854 0.85683,-0.055 1.1788,0.0674 0.47142,0.17923 8.07361,7.59328 9.34583,9.11452 0.1819,0.21751 0.33073,0.82703 0.33073,1.35449 0,0.88419 -0.32,1.27987 -4.10104,5.07111 -2.25558,2.26165 -4.10105,4.21637 -4.10105,4.34382 0,0.12744 -0.0978,0.23172 -0.21725,0.23172 -0.11949,0 -0.98269,0.75377 -1.91823,1.67505 -1.67319,1.6477 -2.50626,2.07664 -3.55306,1.82944 z m 1.73253,-2.30547 c 0.50232,-0.5047 1.06213,-0.92142 1.24403,-0.92604 0.18191,-0.005 0.33073,-0.13833 0.33073,-0.29714 0,-0.15881 0.59532,-0.89669 1.32292,-1.63974 1.42042,-1.45057 1.46409,-1.54669 1.05227,-2.31618 -0.40885,-0.76394 -1.17994,-1.08596 -1.92347,-0.80327 -0.96324,0.36622 -4.3187,3.81271 -4.52943,4.65229 -0.14727,0.58677 -0.0389,0.88542 0.54107,1.49075 0.39888,0.41633 0.79798,0.75697 0.8869,0.75697 0.0889,0 0.57266,-0.41293 1.07498,-0.91764 z m -23.97643,-3.2023 c 0.22868,-0.22867 0.41578,-0.52843 0.41578,-0.66613 0,-0.43239 -1.87516,-2.09309 -2.36338,-2.09309 -0.55959,0 -2.39912,1.72407 -2.39912,2.24855 0,0.59903 0.82174,0.9098 2.42849,0.9184 1.02176,0.005 1.63548,-0.12497 1.91823,-0.40773 z m 22.29031,-1.81169 c 1.78387,-1.80406 2.20255,-2.37959 2.20255,-3.02771 0,-0.527 -0.20078,-0.94086 -0.58804,-1.21211 -0.86545,-0.60619 -1.34906,-0.51062 -2.26696,0.44802 -0.45285,0.47294 -1.48401,1.50724 -2.29147,2.29843 -0.94332,0.92432 -1.46811,1.6573 -1.46811,2.05052 0,0.33659 0.11906,0.61198 0.26458,0.61198 0.14552,0 0.26458,0.16868 0.26458,0.37483 0,0.41141 0.38711,0.63048 1.17089,0.66262 0.30493,0.0125 1.39362,-0.87331 2.71198,-2.20658 z m -27.11328,-0.68295 c 0.26193,0 0.47625,-0.13945 0.47625,-0.30989 0,-0.17045 0.19429,-0.5246 0.43177,-0.787 0.36953,-0.40833 0.38323,-0.59429 0.095,-1.29008 -0.35151,-0.84863 -1.65165,-1.7144 -2.23714,-1.48972 -0.54315,0.20842 -0.69681,3.36874 -0.192,3.94909 0.2784,0.32007 0.49429,0.38316 0.67901,0.19844 0.14896,-0.14896 0.48515,-0.27084 0.74709,-0.27084 z m 21.9075,-0.51236 c 0,-0.13627 0.71437,-0.98697 1.5875,-1.89042 0.87312,-0.90346 1.5875,-1.74446 1.5875,-1.8689 0,-0.12443 0.17859,-0.22624 0.39687,-0.22624 0.21828,0 0.3985,-0.14882 0.40049,-0.33072 0.002,-0.18191 0.0739,-0.59284 0.15979,-0.9132 0.17535,-0.65397 -0.9765,-1.93829 -1.72339,-1.92158 -0.23341,0.005 -0.90064,0.54742 -1.48272,1.20489 -0.58208,0.65747 -1.61567,1.77651 -2.29685,2.48674 -1.07836,1.12435 -1.21332,1.38767 -1.04365,2.03626 0.10718,0.4097 0.45615,0.86244 0.7755,1.00608 0.31934,0.14365 0.58062,0.35201 0.58062,0.46303 0,0.11101 0.23813,0.20184 0.52917,0.20184 0.29104,0 0.52917,-0.1115 0.52917,-0.24778 z m 12.7,-0.1491 c 0.18115,-0.21828 0.46362,-0.40083 0.62771,-0.40567 0.37134,-0.011 1.48637,-0.92328 1.49624,-1.22424 0.004,-0.12219 0.41744,-0.51983 0.91876,-0.88363 0.50131,-0.3638 0.91475,-0.7964 0.91875,-0.96133 0.004,-0.16493 0.24541,-0.36214 0.53645,-0.43825 0.29105,-0.0761 0.52917,-0.32711 0.52917,-0.55778 0,-0.23067 -0.23812,-0.56812 -0.52917,-0.74987 -0.29104,-0.18176 -0.52916,-0.48043 -0.52916,-0.66371 0,-0.19913 -0.34387,-0.33323 -0.85449,-0.33323 -0.72758,0 -1.15991,0.32402 -2.91079,2.1815 -2.17905,2.31173 -2.34919,2.77981 -1.38887,3.82095 0.6416,0.6956 0.76774,0.71851 1.1854,0.21526 z m -2.51354,-3.79102 c 1.30852,-1.15263 3.83645,-4.00229 3.83645,-4.32472 0,-0.19598 -0.31127,-0.69202 -0.69171,-1.10232 -0.94139,-1.01524 -1.62908,-0.79508 -3.3512,1.0729 -0.75957,0.82391 -1.65128,1.75931 -1.98158,2.07865 -0.51407,0.49703 -0.56019,0.68674 -0.32033,1.31763 0.52618,1.38396 1.57149,1.78313 2.50837,0.95786 z m -2.95374,-3.81575 c 0.61356,-0.47294 1.62924,-1.4207 2.25708,-2.10614 1.10004,-1.20096 1.13044,-1.27981 0.83659,-2.17017 -0.59434,-1.80086 -1.74349,-1.53668 -4.27995,0.98391 -1.8263,1.81488 -2.06044,2.44359 -1.27969,3.43615 0.72721,0.92449 1.10899,0.90224 2.46597,-0.14375 z m -23.3363,-12.43541 c 1.8552,-1.78562 2.60983,-2.74159 2.60983,-3.30616 0,-0.12765 -0.24277,-0.49266 -0.53948,-0.81114 -0.92135,-0.98896 -1.70955,-0.74949 -3.44552,1.04678 -0.86419,0.89422 -1.57125,1.72765 -1.57125,1.85209 0,0.12443 -0.17554,0.22624 -0.39008,0.22624 -0.21455,0 -0.57809,0.36356 -0.80788,0.80792 -0.398,0.76966 -0.38892,0.83838 0.19164,1.45064 1.03144,1.08775 1.74409,0.85943 3.95274,-1.26637 z m -2.91707,-3.96222 c 1.29355,-1.34247 2.34813,-2.50333 2.34354,-2.57969 -0.005,-0.0763 -0.29655,-0.46625 -0.64877,-0.86643 -1.08758,-1.23566 -1.84027,-1.00763 -3.93013,1.19063 -2.601,2.73592 -2.68511,2.8864 -2.17004,3.88244 0.33199,0.64201 0.59329,0.81391 1.2372,0.81391 0.68307,0 1.20018,-0.39839 3.1682,-2.44086 z m 7.90815,-1.29161 c 0,-0.12995 0.17859,-0.23628 0.39687,-0.23628 0.21828,0 0.39688,-0.17859 0.39688,-0.39687 0,-0.21828 0.18233,-0.39688 0.40517,-0.39688 0.22286,0 0.48422,-0.20595 0.58081,-0.45767 0.0966,-0.25172 0.56065,-0.81726 1.03124,-1.25677 0.47059,-0.4395 0.88741,-0.97769 0.92627,-1.19598 0.22353,-1.25543 -1.04268,-2.31227 -2.09537,-1.74889 -0.72376,0.38735 -4.28771,3.82135 -4.28771,4.13137 0,0.70825 0.57354,1.58627 1.03617,1.58627 0.28606,0 0.59047,0.11387 0.67648,0.25303 0.18181,0.29417 0.93319,0.0676 0.93319,-0.28133 z m -12.93557,-0.43801 c 0.2525,-0.25285 1.00411,-0.97525 1.67024,-1.60534 0.66614,-0.63009 1.21116,-1.24243 1.21116,-1.36076 0,-0.11832 0.17859,-0.28367 0.39688,-0.36743 0.22724,-0.0872 0.39687,-0.48211 0.39687,-0.92392 0,-0.92119 -1.05913,-1.74981 -1.9506,-1.52606 -0.31781,0.0798 -1.56713,1.11198 -2.77626,2.2938 -1.93125,1.88764 -2.17741,2.23249 -2.02553,2.83762 0.0951,0.37887 0.37336,0.84647 0.61837,1.03913 0.55372,0.43539 1.83972,0.23297 2.45887,-0.38704 z m 10.14404,-3.34831 c 0.29841,-0.33168 0.79343,-0.90009 1.10004,-1.26313 0.30661,-0.36304 0.80241,-0.83162 1.10177,-1.04131 0.29937,-0.20968 0.62521,-0.81251 0.72409,-1.33962 0.14484,-0.77205 0.0721,-1.0661 -0.37416,-1.51235 -0.77355,-0.77356 -1.39473,-0.69266 -2.34906,0.30593 -0.45198,0.47294 -0.97713,0.99971 -1.16699,1.17059 -1.04946,0.94453 -2.0041,2.18878 -2.16199,2.81787 -0.15146,0.60347 -0.0746,0.75635 0.48777,0.97016 0.36715,0.13959 0.66756,0.38872 0.66756,0.55362 0,0.4765 1.35673,0.021 1.97097,-0.66176 z m -2.27052,-4.68123 c 1.39114,-1.38741 2.15163,-2.35174 2.15163,-2.72837 0,-0.56636 -1.25076,-1.74036 -1.85414,-1.74036 -0.32735,0 -3.77122,3.42446 -4.38327,4.35857 -0.3722,0.56803 -0.35678,0.66269 0.20555,1.26251 0.54158,0.57769 1.07665,0.9102 1.56513,0.97262 0.0899,0.0115 1.13171,-0.94475 2.3151,-2.12497 z"
       id="path316" /><path
       id="path320"
       style="fill:#ff3918;fill-opacity:1;stroke-width:1"
       d="m 157.53477,130.5639 c -0.55886,-0.0224 -1.56485,0.2281 -1.93219,0.54932 -0.2409,0.21065 -0.99608,0.46417 -1.67845,0.56327 -1.15445,0.16757 -1.26614,0.25339 -1.60868,1.23817 -0.49976,1.43676 -0.53649,4.12726 -0.10904,7.98504 0.29428,2.65582 0.30842,7.53184 0.0816,27.74301 -0.17564,15.65496 -0.36999,24.5821 -0.53795,24.691 -0.44869,0.2909 -0.91827,3.43229 -0.94517,6.32365 -0.0147,1.58238 0.67754,2.6014 1.89498,2.78897 1.45886,0.22475 3.18429,0.17462 3.35225,-0.0971 0.10749,-0.17393 0.57283,-0.21594 1.20561,-0.10903 0.80714,0.13637 1.06543,0.083 1.19166,-0.24598 0.0887,-0.23102 0.32749,-0.42013 0.5302,-0.42013 0.20271,0 0.36845,-0.14082 0.36845,-0.31316 0,-0.17234 0.24488,-0.8194 0.54415,-1.43764 0.46517,-0.96092 0.50248,-1.27865 0.25735,-2.18901 -0.15772,-0.58573 -0.40258,-1.1362 -0.54415,-1.2237 -0.14157,-0.0875 -0.25735,-1.03237 -0.25735,-2.09962 0,-1.48076 -0.094,-1.97667 -0.39687,-2.09289 -0.34227,-0.13135 -0.39688,-1.42403 -0.39688,-9.40201 0,-7.86928 0.0592,-9.30932 0.39688,-9.64696 0.26693,-0.26693 0.39687,-0.93043 0.39687,-2.02726 0,-1.22645 0.1303,-1.79661 0.52555,-2.29909 0.28906,-0.36748 0.46533,-0.76479 0.39223,-0.88315 -0.16077,-0.26012 0.34751,-0.60415 1.05523,-0.71417 0.28472,-0.0443 0.58236,-0.18121 0.66146,-0.30437 0.0791,-0.12316 1.07923,-0.0758 2.2226,0.1049 1.14337,0.18072 4.11994,0.35012 6.61458,0.37672 4.60591,0.0492 5.59305,0.14869 6.19497,0.62322 0.39043,0.3078 3.27082,0.0677 4.02405,-0.33538 0.27477,-0.14705 1.14074,-0.26768 1.92443,-0.26768 1.19128,0 1.51913,-0.10883 2.00143,-0.66353 0.31728,-0.36491 0.57722,-0.76878 0.57722,-0.89762 0,-0.12885 0.1786,-0.30274 0.39688,-0.38654 0.29898,-0.11474 0.39687,-0.59656 0.39687,-1.95388 0,-2.1598 -0.53858,-2.87794 -1.95078,-2.6014 -0.45506,0.0891 -2.49252,0.23482 -4.52738,0.32402 -2.3308,0.10217 -3.89717,0.28978 -4.23333,0.50694 -0.83238,0.53775 -10.0068,0.52414 -10.45466,-0.0155 -0.22834,-0.27513 -0.83211,-0.39791 -1.95853,-0.39791 -1.74177,0 -2.80029,-0.47888 -2.81069,-1.27176 -0.003,-0.24641 -0.23839,-0.74569 -0.52296,-1.10949 -0.47888,-0.61226 -0.51848,-1.11457 -0.52348,-6.75411 -0.005,-4.97376 0.0666,-6.19585 0.38809,-6.65489 0.25241,-0.36038 0.45399,-1.54553 0.56172,-3.30006 0.0924,-1.50574 0.32381,-3.09501 0.51418,-3.53157 0.19036,-0.43655 0.38416,-1.01618 0.43046,-1.28829 0.0532,-0.31301 0.5654,-0.68356 1.39423,-1.00872 1.15728,-0.45403 1.99046,-0.5136 7.14375,-0.5116 3.20853,0.001 6.72672,0.12946 7.81813,0.28525 1.0914,0.15579 3.52777,0.40169 5.41414,0.54674 1.88637,0.14504 3.54708,0.38139 3.69073,0.52503 0.14726,0.14726 1.88254,0.2599 3.97857,0.2589 l 3.7176,-0.002 0.59532,-1.04283 c 0.46252,-0.81001 0.59531,-1.45873 0.59531,-2.90835 0,-1.17256 -0.10725,-1.86603 -0.28887,-1.86603 -0.15895,0 -0.59222,-0.23813 -0.96222,-0.52917 -0.92205,-0.72527 -5.07942,-0.7675 -6.28954,-0.0641 -0.71979,0.41839 -1.9834,0.46822 -13.55783,0.53692 -12.75176,0.0757 -12.76459,0.0752 -13.54284,-0.50023 -0.60935,-0.45049 -1.01296,-0.54433 -1.85415,-0.4315 -0.59145,0.0793 -1.12991,0.0563 -1.19631,-0.0512 -0.0467,-0.0756 -0.1832,-0.11346 -0.36948,-0.12092 z" /><path
       id="path8846"
       style="fill:#37abc8;stroke-width:1;fill-opacity:1"
       d="M 83.31016 33.944726 C 69.463509 33.939105 55.360932 34.019374 54.230798 34.191739 C 53.357669 34.324899 51.179445 34.500046 49.390267 34.580346 C 47.097989 34.683286 45.967023 34.845307 45.561043 35.129666 C 45.244164 35.351606 44.564904 35.537561 44.051575 35.542561 C 43.538255 35.547721 42.82064 35.722175 42.45684 35.930134 C 42.09304 36.138104 41.348904 36.312708 40.803194 36.317708 C 40.173465 36.323658 39.6177 36.520326 39.28184 36.856176 C 38.83142 37.306606 37.950843 37.547597 37.589954 37.319197 C 37.532464 37.282817 37.264581 37.448156 36.994641 37.686616 C 36.724701 37.925086 36.093739 38.207785 35.59266 38.314485 C 35.09158 38.421175 34.517308 38.672051 34.316768 38.87259 C 34.116229 39.07313 33.729966 39.237426 33.457906 39.237426 C 33.185846 39.237426 32.895367 39.347179 32.812467 39.481339 C 32.729548 39.615509 31.918439 40.099229 31.01051 40.556209 C 29.385002 41.374338 29.071573 41.56114 26.893966 43.007738 C 26.291566 43.407918 25.743452 43.735343 25.675952 43.735343 C 25.608402 43.735343 25.099598 44.151731 24.545789 44.660351 C 23.23907 45.86022 22.688198 45.860593 22.463228 44.661384 C 22.307059 43.828945 22.202722 43.735343 21.430733 43.735343 L 20.571871 43.735343 L 20.42511 45.876297 C 20.31596 47.468696 20.153733 48.139815 19.792074 48.492675 C 19.524584 48.753655 18.353301 50.010447 17.189132 51.285786 C 16.024963 52.561115 14.688703 54.018312 14.219804 54.523831 C 13.750904 55.029361 13.300098 55.655014 13.217798 55.914444 C 13.135458 56.173884 12.89363 56.452961 12.68088 56.534561 C 12.46814 56.616191 12.29434 56.836614 12.29434 57.024454 C 12.29434 57.212304 12.056213 57.515005 11.765173 57.696764 C 11.474134 57.878514 11.236007 58.251415 11.236007 58.525654 C 11.236007 58.799894 11.057411 59.092977 10.839132 59.176777 C 10.620852 59.260537 10.442257 59.558196 10.442257 59.838236 C 10.442257 60.118275 10.263661 60.415894 10.045382 60.499694 C 9.8271021 60.583454 9.6485067 60.845291 9.6485067 61.081571 C 9.6485067 61.31785 9.4103797 61.813829 9.11934 62.183829 C 8.8283003 62.553829 8.5901733 63.06401 8.5901733 63.31761 C 8.5901733 63.57121 8.4192714 63.9204 8.2103516 64.09379 C 8.0014218 64.26719 7.7556316 64.750143 7.6641317 65.166593 C 7.5726618 65.583042 7.3268416 66.065489 7.1179118 66.238879 C 6.908982 66.412278 6.73809 66.754663 6.73809 67.000072 C 6.73809 67.245482 6.563133 67.677751 6.3494832 67.960221 C 6.1358334 68.2427 5.9565747 68.712011 5.9515747 69.003051 C 5.9463947 69.294091 5.7046395 69.921855 5.4141398 70.398315 C 5.1236501 70.874774 4.8860067 71.505547 4.8860067 71.800296 C 4.8860067 72.095046 4.7226379 72.657916 4.5232381 73.050866 C 4.3238283 73.443826 4.0286673 74.53109 3.8669474 75.466739 C 3.7052176 76.402388 3.4681145 77.235823 3.3403646 77.318822 C 3.2126247 77.401822 3.0468115 78.570085 2.9719116 79.915563 C 2.8882117 81.419072 2.6953935 82.531109 2.4716838 82.800658 C 1.9735943 83.401278 1.9750213 93.489845 2.4737508 94.667634 C 2.6586106 95.104204 2.8776429 96.532956 2.9605428 97.842634 C 3.0443927 99.167253 3.2702459 100.45498 3.4695557 100.7453 C 3.6666255 101.03233 3.8281901 101.54989 3.8281901 101.8951 C 3.8281901 102.58479 4.7370781 105.84813 5.2787476 107.10305 C 5.4671874 107.53961 5.7032602 108.19446 5.8037801 108.55826 C 6.0281899 109.37046 6.6764887 110.93278 7.0114583 111.46868 C 7.1478882 111.68697 7.4400545 112.2525 7.6605143 112.72545 C 8.7011333 114.95791 8.9064856 115.35776 9.3932251 116.09888 C 9.6799348 116.53544 10.094476 117.24982 10.314616 117.68638 C 10.854605 118.75719 11.278626 119.39728 11.831836 119.97823 C 12.086496 120.24566 12.294857 120.6431 12.294857 120.86138 C 12.294857 121.07966 12.397537 121.25826 12.523267 121.25826 C 12.648996 121.25826 13.080848 121.73283 13.482898 122.31298 C 14.145587 123.26924 14.18278 123.4423 13.88339 124.16506 C 13.70177 124.60356 13.46254 124.96243 13.35164 124.96243 C 13.01692 124.96243 12.850918 126.39348 13.144417 126.74836 C 13.548367 127.2368 14.310929 127.15212 15.456938 126.49257 L 16.47548 125.90655 L 18.843294 128.2785 C 20.145743 129.5831 21.531483 130.88909 21.922693 131.18013 C 22.313902 131.47117 22.838013 131.90042 23.086963 132.13408 C 23.335913 132.36773 24.194498 132.99461 24.994857 133.52728 C 25.795226 134.05994 26.727819 134.73202 27.067598 135.02073 C 27.407378 135.30943 27.807316 135.54576 27.955916 135.54576 C 28.104516 135.54576 28.65969 135.88596 29.18995 136.3023 C 30.171559 137.07301 32.465863 138.19159 33.065682 138.19159 C 33.247642 138.19159 33.544947 138.37019 33.726107 138.58847 C 33.907267 138.80676 34.270463 138.98534 34.533293 138.98534 C 34.796122 138.98534 35.201353 139.1754 35.434013 139.40806 C 35.666683 139.64073 36.330252 139.89486 36.908341 139.97236 C 37.486441 140.0499 37.95944 140.21179 37.95944 140.33255 C 37.95944 140.4533 38.46546 140.68293 39.083919 140.84259 C 39.702389 141.00225 40.58339 141.30464 41.041939 141.51439 C 41.500489 141.72414 42.073547 141.89576 42.315247 141.89576 C 42.556956 141.89576 43.312541 142.06691 43.994731 142.27661 C 44.67692 142.48632 46.035402 142.73354 47.013151 142.82594 L 48.79082 142.9944 L 48.967554 143.93646 L 58.383 143.93646 C 58.383371 143.93577 58.38366 143.92931 58.384033 143.92871 C 58.486953 143.76195 59.71299 143.55112 61.162158 143.45122 C 65.769434 143.13353 68.520339 142.62266 72.487565 141.34747 C 73.360684 141.06683 74.26869 140.83688 74.50553 140.83691 C 74.74237 140.83694 75.08453 140.65883 75.26569 140.44055 C 75.77444 139.82754 77.705152 139.9172 78.114612 140.57284 C 78.296362 140.86388 78.564915 141.10201 78.711475 141.10201 C 79.110659 141.10201 80.497707 142.65536 81.356791 143.93646 L 91.567537 143.93646 C 91.428693 143.39041 91.242256 142.81136 90.976359 142.02805 C 90.926959 141.88253 90.58992 141.28721 90.227051 140.70513 C 89.864191 140.12305 89.397335 139.28961 89.189905 138.85305 C 88.982475 138.41649 88.268904 137.52353 87.603955 136.86868 C 86.939006 136.21384 86.391458 135.49051 86.386458 135.26154 C 86.381698 135.03256 87.211118 134.276 88.229757 133.57999 C 89.248406 132.88398 90.08184 132.20831 90.08184 132.07827 C 90.08184 131.94823 90.230669 131.83891 90.412569 131.83591 C 91.142898 131.82303 98.95753 124.06515 99.3066 123.00647 C 99.35972 122.84536 99.538315 122.5944 99.703475 122.44888 C 100.05864 122.13596 103.04642 117.69424 103.04642 117.47916 C 103.04642 117.39776 103.57629 116.54047 104.22413 115.57437 C 104.87196 114.60828 105.47435 113.55719 105.56255 113.23859 C 105.65079 112.91999 106.11443 111.82587 106.59298 110.80722 C 107.59134 108.68207 109.22942 103.81854 109.66721 101.67909 C 109.83099 100.87873 110.11727 98.968866 110.30334 97.434907 C 110.48941 95.900949 110.79644 94.356211 110.98599 94.002042 C 111.26586 93.479062 111.30157 87.828447 111.17564 63.921191 C 111.09036 47.730857 110.94572 34.362993 110.85422 34.214994 C 110.74738 34.042114 97.156811 33.950347 83.31016 33.944726 z " /><path
       id="path1343"
       style="fill:#c87137;stroke:none;stroke-width:0.7;stroke-dasharray:none;paint-order:fill markers stroke"
       d="m 62.111345,40.102607 c -0.0973,-0.005 -0.20048,4.4e-4 -0.30858,0.0157 -0.50801,0.072 -0.63571,0.27771 -0.70596,1.13544 -0.11134,1.35928 0.55781,4.45725 1.69211,7.83405 1.2498,3.72052 2.08236,8.34406 2.72928,15.15554 0.24899,2.62167 -0.40358,12.34132 -0.85368,12.71487 -0.25404,0.21083 -0.51629,-0.10273 -1.07079,-1.28053 -0.40384,-0.85777 -0.83154,-1.62248 -0.9504,-1.69949 -0.11888,-0.077 -0.35131,-0.44038 -0.51621,-0.80742 -0.16491,-0.36707 -0.59526,-1.15206 -0.95672,-1.74418 -1.13805,-1.8643 -2.00111,-3.74538 -2.00385,-4.36777 -9.7e-4,-0.33007 -0.19187,-1.07309 -0.42316,-1.65113 -0.63835,-1.5954 -0.42272,-6.67557 0.36691,-8.64514 0.74126,-1.84886 0.75229,-2.19907 0.0626,-1.94393 -0.54689,0.20233 -1.89293,1.84339 -1.89293,2.30769 0,0.14462 -0.19779,0.48098 -0.43946,0.74802 -0.36896,0.40769 -0.44447,1.25266 -0.471,5.26985 l -0.0316,4.78357 1.03872,2.15314 c 4.29581,8.90391 4.26525,8.8325 4.77465,11.23721 0.5901,2.78562 -0.68455,6.54516 -3.7007,10.91288 -0.64379,0.93226 -1.17067,1.84392 -1.17067,2.02593 0,0.18203 -0.1778,0.58438 -0.39478,0.89416 -0.21698,0.30979 -0.50917,1.03318 -0.6492,1.6075 -0.24302,0.99674 -0.6149,2.14163 -1.16856,3.595043 -0.24101,0.63266 -0.26922,0.64063 -0.54301,0.15141 -0.38691,-0.691373 -1.23882,-2.930893 -1.74469,-4.586473 -0.22616,-0.74014 -0.50293,-1.46683 -0.61557,-1.61486 -0.11262,-0.14802 -0.29124,-0.69305 -0.39686,-1.21114 -0.10568,-0.5181 -0.33715,-1.18423 -0.51411,-1.48028 -0.17697,-0.29606 -0.67155,-1.44665 -1.09917,-2.55685 -0.42765,-1.11023 -0.87672,-2.13342 -0.99773,-2.27405 -0.121,-0.14062 -0.21974,-0.52098 -0.21974,-0.84527 0,-0.3243 -0.23969,-1.1178 -0.53249,-1.76308 -0.76366,-1.683 -0.76688,-5.73849 -0.006,-7.15857 0.29607,-0.55237 0.53827,-1.16848 0.53827,-1.36936 0,-0.20089 0.24225,-0.67339 0.5383,-1.04976 0.97257,-1.23643 0.46656,-2.37005 -0.7638,-1.71158 -0.89018,0.47641 -2.69398,3.50703 -3.01891,5.07217 -0.16499,0.79469 -0.46439,1.5077 -0.66549,1.5849 -0.21445,0.0824 -1.27889,-0.7652 -2.57368,-2.04959 -1.21433,-1.20458 -2.70476,-2.53637 -3.31223,-2.95951 -0.60749,-0.42316 -1.31209,-0.99203 -1.56597,-1.26424 -0.2539,-0.27219 -0.70945,-0.72983 -1.01245,-1.01663 -0.85694,-0.81121 -1.16608,-2.42491 -0.98982,-5.17101 0.14447,-2.25109 0.88456,-5.04087 1.44716,-5.45591 0.11604,-0.0855 0.57339,-0.7006 1.01664,-1.36673 0.44326,-0.66614 0.89771,-1.2789 1.00981,-1.36201 0.11204,-0.0832 0.50708,-0.56245 0.87787,-1.06501 0.93768,-1.27096 3.59358,-4.0324 3.87838,-4.0324 0.56756,0 3.01155,-2.77147 3.38216,-3.83528 0.55827,-1.6026 0.50486,-3.15653 -0.13615,-3.96985 -0.44938,-0.57015 -0.57119,-0.61123 -0.79744,-0.26914 -0.14685,0.22204 -0.26858,0.88105 -0.27073,1.46398 -0.007,1.73442 -0.6948,2.48749 -5.7119,6.2523 -2.01257,1.51024 -3.21636,2.92775 -4.50025,5.30086 -0.4539,0.83893 -1.12967,1.98552 -1.50185,2.5479 -0.79851,1.20665 -1.74731,3.78559 -1.74731,4.74889 0,0.37378 -0.0831,0.67917 -0.18451,0.67917 -0.32255,0 -1.43034,-1.157 -1.43034,-1.49396 0,-0.17811 -0.18168,-0.4749 -0.40372,-0.65919 -0.22205,-0.18428 -0.40372,-0.56327 -0.40372,-0.84264 0,-0.27938 -0.24223,-0.71531 -0.53828,-0.96881 -0.38668,-0.33108 -0.54193,-0.80411 -0.55037,-1.6795 -0.006,-0.67023 -0.1862,-1.70349 -0.39952,-2.2956 -0.56157,-1.55869 -0.5556,-10.18296 0.008,-11.53159 0.22205,-0.53142 0.40371,-1.45203 0.40371,-2.0459 0,-0.59388 0.19018,-1.55531 0.42264,-2.13632 0.23248,-0.581 0.38389,-1.46134 0.33643,-1.95653 -0.0725,-0.75631 -0.2046,-0.91412 -0.82635,-0.98563 -0.52794,-0.0607 -0.74014,0.0354 -0.74014,0.33537 0,0.23127 -0.23343,1.1174 -0.51883,1.96915 -0.28541,0.85175 -0.59895,2.06308 -0.6965,2.69143 -0.0975,0.62833 -0.28802,1.21068 -0.42317,1.29419 -0.13515,0.0836 -0.24549,0.48369 -0.24549,0.88944 0,1.53885 -1.32511,1.58815 -2.22253,0.0825 -0.23512,-0.39448 -0.65265,-0.95978 -0.92781,-1.25584 -0.9018,-0.97032 -1.63404,-2.40187 -1.82406,-3.56613 -0.23312,-1.42829 -0.57222,-1.45896 -0.942,-0.0857 -0.47457,1.7624 0.50176,4.95611 2.01384,6.58768 0.35871,0.38705 1.13337,1.52766 1.72157,2.53477 0.94788,1.62303 1.10139,2.13472 1.34832,4.50498 0.15325,1.47078 0.46106,3.46133 0.68391,4.4235 0.22284,0.96219 0.54455,2.41556 0.7149,3.2297 0.17035,0.81417 0.71816,2.33145 1.21745,3.37164 0.49929,1.04019 0.90782,1.99204 0.90782,2.11477 0,0.25063 1.52976,2.30253 2.03592,2.73084 0.18042,0.15267 0.59741,0.85016 0.92623,1.54967 0.56858,1.20959 5.10757,6.11248 5.65882,6.11248 0.49492,0 3.86113,3.66512 5.13999,5.59627 0.72095,1.08867 1.31102,2.02627 1.31102,2.08374 0,0.0575 0.40511,0.98756 0.90047,2.0664 1.69359,3.68851 1.89442,4.25328 1.61064,4.53706 -0.18086,0.18087 -0.52064,0.17523 -1.02715,-0.0174 -0.49114,-0.18672 -3.45858,-0.26106 -8.45433,-0.21183 -7.5259,0.0742 -7.72793,0.0622 -9.04359,-0.53883 -0.74015,-0.3381 -1.52739,-0.73274 -1.74943,-0.87679 -0.22204,-0.14406 -0.70398,-0.41215 -1.07079,-0.59612 -0.36681,-0.18396 -1.05059,-0.69818 -1.5197,-1.14228 -0.46913,-0.44408 -1.20865,-1.00206 -1.64324,-1.24005 -0.8659,-0.47415 -2.4891,-2.68816 -2.50429,-3.41579 -0.005,-0.25164 -0.1827,-0.76064 -0.39426,-1.13072 -0.43547,-0.76178 -0.5665,-5.64046 -0.16294,-6.06883 0.33292,-0.35342 1.38243,-4.45381 1.69264,-6.61291 0.20594,-1.43327 0.17455,-1.97671 -0.16033,-2.77817 -0.22896,-0.54798 -0.52348,-0.92991 -0.65446,-0.84895 -0.13097,0.0809 -0.29971,1.01179 -0.37532,2.06851 -0.0755,1.05672 -0.24364,1.99848 -0.37322,2.09268 -0.44098,0.32063 -1.44846,2.59061 -1.44928,3.26598 -5e-4,0.37007 -0.18153,1.02001 -0.40266,1.44401 -0.22112,0.424 -0.40214,1.03663 -0.40214,1.36148 0,0.32488 -0.16822,0.82074 -0.37374,1.10181 -0.356,0.48685 -0.39925,0.46932 -0.90941,-0.36956 -0.29452,-0.48431 -0.61788,-1.62959 -0.71912,-2.54528 -0.21598,-1.95375 -0.91729,-4.55354 -1.29314,-4.79462 -0.46503,-0.2983 -1.22569,0.0666 -1.38619,0.66497 -0.44888,1.67329 -0.0791,4.3319 1.20378,8.65461 1.19441,4.02491 1.4135,4.60028 2.03172,5.33659 0.35133,0.41843 0.63868,0.93316 0.63868,1.14385 0,0.21069 0.0933,0.38269 0.20764,0.38269 0.11439,0 0.44301,0.43668 0.73015,0.96985 0.28713,0.53318 0.98058,1.45636 1.54127,2.05169 0.56067,0.59534 1.01978,1.18864 1.01978,1.31837 0,0.12975 0.13775,0.2355 0.30648,0.2355 0.16871,0 0.44121,0.17369 0.60555,0.38584 0.16436,0.21216 0.85742,0.67816 1.54022,1.03557 1.22396,0.6407 2.61231,1.63253 3.94357,2.81759 0.37416,0.33306 0.96572,0.60556 1.31417,0.60556 0.92167,0 0.78632,0.34207 -0.59822,1.51446 -0.67723,0.57348 -1.37935,1.178103 -1.56018,1.343613 -0.18082,0.1655 -0.59533,0.38535 -0.92149,0.48888 -0.32617,0.10355 -0.59296,0.28659 -0.59296,0.40686 0,0.12026 -0.63585,0.7029 -1.41299,1.29471 -0.77715,0.59181 -1.67465,1.30303 -1.9944,1.58017 -2.60145,2.25489 -4.23736,3.31028 -5.18624,3.34587 -0.23261,0.01 -0.96765,0.28218 -1.63377,0.60768 -1.15235,0.56308 -1.21522,0.65269 -1.29262,1.85088 -0.0669,1.03679 0.0148,1.31082 0.46205,1.5502 0.64269,0.34396 2.47181,0.11858 3.73331,-0.45996 0.48638,-0.22304 0.95814,-0.33184 1.04819,-0.24181 0.09,0.09 -0.0197,0.80229 -0.24339,1.58278 -0.22374,0.78051 -0.61173,2.25433 -0.86262,3.27544 -0.47032,1.9142 -2.54006,6.30276 -3.25074,6.89258 -0.22085,0.1833 -0.40161,0.62107 -0.40161,0.97302 0,0.84231 0.64117,0.83023 1.77308,-0.0331 0.48519,-0.37007 1.00069,-0.67286 1.14544,-0.67286 0.74541,0 3.27175,-4.25623 3.27175,-5.51216 0,-0.33681 0.18168,-1.04717 0.40371,-1.57857 0.22205,-0.53143 0.40371,-1.31688 0.40371,-1.74575 0,-0.42889 0.24223,-1.08762 0.53829,-1.464 0.29607,-0.37637 0.53829,-0.89156 0.53829,-1.14491 0,-0.69421 1.71241,-3.33469 3.05045,-4.70315 1.53638,-1.57131 4.91559,-3.99066 6.41527,-4.59329 0.3952,-0.15881 0.78505,-0.46168 0.86629,-0.67338 0.0813,-0.21169 0.34474,-0.38532 0.5856,-0.38532 0.24086,0 0.75935,-0.17585 1.15227,-0.39109 0.7093,-0.38856 2.04527,-0.73417 4.88608,-1.264233 2.65407,-0.49522 6.51726,0.18192 8.34341,1.462413 1.07447,0.7534 3.11153,4.59947 4.02243,7.59432 0.31516,1.0362 0.75024,2.44542 0.96669,3.13142 0.5114,1.62063 0.51425,6.59249 0.006,9.78741 -0.21203,1.33225 -0.46937,3.42148 -0.57192,4.64272 -0.13178,1.56939 -0.29059,2.22041 -0.54249,2.22041 -0.19602,0 -0.57406,0.3052 -0.84003,0.67812 -0.26595,0.37292 -0.69556,0.93681 -0.9546,1.25267 -0.40296,0.49132 -0.47101,1.16796 -0.47101,4.68528 0,2.99778 0.0939,4.2078 0.34748,4.46714 1.04971,1.07342 1.09082,1.71862 0.86155,13.63374 -0.26552,13.80203 -0.26563,11.87285 -0.004,17.41539 l 0.21762,4.58698 -0.71175,0.76801 c -0.95831,1.03403 -0.99013,2.73247 -0.0698,3.72541 0.5821,0.62807 0.6582,1.0134 0.82163,4.14385 0.20932,4.00955 -0.16835,9.20265 -0.77378,10.64215 -0.23147,0.55035 -0.42053,1.48012 -0.42053,2.06639 0,0.5863 -0.1514,1.23112 -0.33644,1.43298 -0.46643,0.50885 -0.95928,1.30107 -1.29104,2.07534 -0.23493,0.54828 -0.17891,0.74867 0.34536,1.2348 0.34416,0.31911 1.15182,0.66408 1.79516,0.76695 0.64334,0.10284 1.42396,0.36515 1.73418,0.58243 0.7032,0.4926 0.96349,0.49528 1.49974,0.0143 0.23369,-0.20966 1.0303,-0.50406 1.77045,-0.65394 2.78719,-0.56438 3.78656,-0.92794 4.40405,-1.60172 0.60309,-0.65806 0.62428,-0.8058 0.41896,-2.86383 -0.11909,-1.19356 -0.237,-3.01776 -0.26232,-4.05396 -0.0254,-1.03619 -0.19682,-3.50002 -0.3811,-5.47484 -0.39352,-4.21686 -0.29675,-6.99914 0.26704,-7.68421 1.16656,-1.41753 1.68277,-1.7312 3.29962,-2.00491 3.99043,-0.6755 8.41791,-1.76775 8.95372,-2.20885 0.15536,-0.1279 0.79122,-0.3138 1.41298,-0.41319 0.62178,-0.0994 1.13072,-0.26914 1.13072,-0.3769 0,-0.10768 0.93863,-0.66364 2.08585,-1.23532 1.14722,-0.57168 2.75199,-1.55758 3.56614,-2.19099 2.11172,-1.64287 6.45579,-5.80402 6.45783,-6.18501 7.2e-4,-0.1768 0.41234,-0.77006 0.91466,-1.31838 0.9464,-1.03303 4.27062,-6.57643 4.60961,-7.68685 0.10602,-0.34736 0.34615,-0.81299 0.53355,-1.03504 0.58264,-0.69035 1.2106,-4.6326 1.2106,-7.60064 0,-2.85257 -0.61768,-7.0527 -1.12755,-7.66739 -0.1507,-0.18171 -0.6152,-1.02949 -1.03242,-1.884 -0.41721,-0.85451 -1.55121,-2.40115 -2.51953,-3.43735 -0.9683,-1.0362 -1.76536,-2.03799 -1.77044,-2.22621 -0.005,-0.1882 -0.34253,-0.48832 -0.74961,-0.66707 -0.40708,-0.17874 -0.83729,-0.47892 -0.95568,-0.66708 -0.11837,-0.18815 -0.497,-0.3422 -0.84159,-0.3422 -0.34459,0 -0.77716,-0.18169 -0.96145,-0.40372 -0.18426,-0.22205 -0.61429,-0.4037 -0.95567,-0.4037 -0.34136,0 -0.8097,-0.18943 -1.04081,-0.42054 -0.23111,-0.2311 -0.87583,-0.48447 -1.43245,-0.56351 -0.55661,-0.0791 -1.39388,-0.31408 -1.86033,-0.522 -0.46645,-0.20793 -1.31427,-0.37872 -1.884,-0.37952 -0.56973,-9.2e-4 -1.39892,-0.19917 -1.843,-0.44052 -0.74556,-0.4052 -6.20767,-0.80178 -12.17869,-0.88417 l -1.413,-0.0194 0.004,-1.0093 c 0.002,-0.5551 0.18328,-1.60362 0.4037,-2.33027 0.22045,-0.72667 0.4011,-1.95452 0.4011,-2.72823 0,-0.77372 0.17581,-1.7455 0.39057,-2.15945 0.21475,-0.41395 0.47041,-1.4267 0.56824,-2.25091 0.20121,-1.6952 1.04195,-4.42026 1.61748,-5.24197 0.21125,-0.30157 0.38427,-0.69031 0.38427,-0.86419 0,-0.77832 3.36273,-4.14319 4.84666,-4.84983 3.43167,-1.63409 3.19105,-1.57877 6.72646,-1.55334 2.87083,0.0206 3.52757,0.10804 4.47869,0.59611 1.1084,0.56872 4.38757,4.1701 4.39773,4.82984 0.004,0.18504 0.11998,0.33643 0.26022,0.33643 0.385,0 1.62858,2.63424 1.63062,3.45363 9.1e-4,0.39492 0.16558,1.03232 0.36587,1.41615 0.2003,0.38385 0.44727,1.14081 0.5488,1.68215 0.10155,0.54134 0.27381,0.98405 0.38269,0.98405 0.10885,0 0.3411,0.33307 0.5162,0.74014 0.4313,1.00267 0.94184,1.77231 1.34728,2.03171 0.18505,0.11837 0.33644,0.36864 0.33644,0.55563 0,0.39567 1.21568,1.58438 2.06797,2.02225 0.66133,0.33974 2.23256,0.39703 2.64203,0.0963 0.89781,-0.6596 1.22033,-1.34954 0.95618,-2.04433 -0.22147,-0.58252 -0.44081,-0.71018 -1.21902,-0.71018 -0.76806,0 -1.1547,-0.21788 -2.0254,-1.14227 -0.59184,-0.62832 -1.07606,-1.25479 -1.07606,-1.39198 0,-0.13716 -0.16467,-0.44073 -0.36586,-0.67443 -0.39231,-0.45574 -0.97984,-2.57554 -0.97984,-3.53512 0,-0.63255 0.21291,-0.63391 2.55685,-0.0137 2.45437,0.64945 6.31503,0.18502 8.932165,-1.07501 0.69943,-0.33674 1.76748,-0.56205 2.816,-0.594 1.67144,-0.0509 1.69227,-0.0614 1.94866,-0.95672 0.17744,-0.6196 0.16232,-1.16109 -0.0478,-1.71789 -0.20324,-0.53843 -0.21903,-0.977 -0.0472,-1.29786 0.2875,-0.5373 0.3511,-2.92732 0.0957,-3.59295 -0.29161,-0.75996 -1.19919,-0.45373 -2.74925,0.92781 -0.84808,0.75589 -1.99623,1.49202 -2.599965,1.6669 -0.59465,0.17225 -1.32353,0.45764 -1.61957,0.63447 -0.76564,0.4573 -2.38941,0.70184 -4.53075,0.6818 -2.71427,-0.0255 -5.04006,-1.26536 -7.88607,-4.20378 -0.78779,-0.81335 -1.54763,-1.4787 -1.68897,-1.4787 -0.14136,0 -0.33391,-0.24223 -0.4279,-0.53828 -0.094,-0.29606 -0.26517,-0.53828 -0.38058,-0.53828 -0.11545,0 -0.4892,-0.24224 -0.83055,-0.5383 -0.34136,-0.29606 -0.76914,-0.53827 -0.95041,-0.53827 -0.18128,0 -0.47067,-0.169913 -0.6429,-0.377443 -0.17222,-0.20751 -0.6336,-0.4578 -1.02559,-0.55615 -0.39197,-0.0984 -1.05031,-0.41901 -1.46293,-0.71281 -0.82484,-0.58734 -0.75945,-0.89802 0.49992,-2.37287 0.32448,-0.37999 0.974,-1.41741 1.44348,-2.30558 0.46948,-0.88817 0.99721,-1.79654 1.17276,-2.01857 0.17556,-0.22206 0.5526,-0.85687 0.8374,-1.41089 0.67224,-1.30774 2.29017,-3.01612 3.40055,-3.59032 0.48257,-0.24954 1.78119,-0.55527 2.88592,-0.67916 1.10473,-0.12388 2.53126,-0.47077 3.17031,-0.77116 1.45523,-0.68429 2.14407,-0.68603 3.72487,-0.008 0.69068,0.29606 1.68842,0.53829 2.21728,0.53829 1.2512,0 2.827635,-1.14977 2.709825,-1.97652 -0.0754,-0.5287 -0.21739,-0.57242 -1.604345,-0.48992 -1.64711,0.098 -2.64988,-0.2596 -2.64988,-0.94516 0,-0.23771 0.51472,-0.94021 1.14383,-1.56122 1.42219,-1.40388 2.355,-2.58536 2.355,-2.98318 0,-0.16696 0.242245,-0.5232 0.538305,-0.79112 0.29605,-0.26794 0.53826,-0.62069 0.53826,-0.7843 0,-0.1636 0.30279,-0.62438 0.67287,-1.02348 0.81359,-0.87743 0.83969,-1.17914 0.13456,-1.5565 -0.88628,-0.47432 -1.700555,0.0968 -3.069905,2.15313 -0.79168,1.18895 -4.74972,5.38285 -5.08005,5.38285 -0.13582,0 -0.62852,0.17595 -1.09497,0.39058 -0.9002,0.41417 -4.45447,1.02504 -6.19868,1.06552 -1.46963,0.034 -1.76299,-0.51409 -1.16751,-2.1831 0.25339,-0.71021 0.53841,-1.89714 0.63342,-2.63727 0.095,-0.74015 0.29616,-1.58513 0.44682,-1.87771 0.15068,-0.29256 0.36937,-0.89812 0.48625,-1.34568 0.55814,-2.13732 1.29117,-3.7918 1.98808,-4.4887 0.71157,-0.71152 0.91525,-0.76591 2.87751,-0.76591 1.16156,0 2.33211,0.1375 2.601,0.30543 0.38398,0.23979 0.64309,0.20419 1.20747,-0.16559 1.20978,-0.79269 0.92091,-1.35272 -1.03084,-1.9986 -0.59212,-0.19593 -1.43992,-0.51574 -1.884,-0.71069 -0.44408,-0.19494 -1.0482,-0.39443 -1.34256,-0.44315 -0.29436,-0.0488 -0.57458,-0.29183 -0.62239,-0.54038 -0.0994,-0.51589 1.79803,-3.13714 2.28771,-3.16033 0.17768,-0.008 0.41992,-0.17762 0.53829,-0.37637 0.71334,-1.19759 3.27198,-1.90903 7.886095,-2.19309 3.44902,-0.21233 4.11014,-0.42776 3.98613,-1.29894 -0.0699,-0.49098 -0.36991,-0.64406 -1.82828,-0.93253 -0.95954,-0.18979 -1.86163,-0.46228 -2.00489,-0.60557 -0.14329,-0.14326 -1.08196,-0.26072 -2.085865,-0.26072 -1.55846,0 -2.16265,0.15604 -4.13122,1.06552 -1.92211,0.88803 -2.67268,1.43738 -4.51287,3.30226 -1.55271,1.57353 -2.46671,2.77213 -3.082,4.04238 -0.4811,0.99323 -0.8747,1.94651 -0.8747,2.11846 0,0.17192 -0.25517,0.87101 -0.5672,1.55334 -1.05418,2.30536 -1.27142,2.85324 -1.45033,3.66023 -0.0981,0.44261 -0.26619,0.86652 -0.37374,0.942 -0.31985,0.22454 -1.31617,3.19923 -1.91185,5.70929 -0.81411,3.43039 -2.48937,8.37294 -3.03942,8.96737 -3.79855,4.10508 -3.96144,4.29623 -3.96144,4.64219 0,0.27244 -1.48423,1.40774 -1.84036,1.40774 -0.1359,0 -0.39135,0.17383 -0.56772,0.38636 -0.17639,0.21254 -0.68374,0.46659 -1.12757,0.56404 -0.44383,0.0974 -1.13206,0.34635 -1.52917,0.55352 -0.39711,0.20719 -0.87818,0.37767 -1.06921,0.37849 -0.19103,9e-4 -0.67548,0.22666 -1.07657,0.50149 -1.35256,0.92682 -2.33933,1.50747 -3.34114,1.96652 -0.91996,0.42157 -2.06171,1.331683 -3.57455,2.849123 -0.78114,0.78353 -0.94568,0.76337 -0.94568,-0.11674 0,-0.71171 0.52233,-2.012383 1.76414,-4.391433 2.63707,-5.05207 3.88785,-7.99588 3.88785,-9.15188 0,-0.45377 0.1678,-1.09356 0.37322,-1.42142 0.20543,-0.32784 0.45259,-1.08056 0.54934,-1.67268 0.0967,-0.59211 0.34112,-1.4399 0.54301,-1.88398 0.94189,-2.07192 1.3261,-6.48691 1.35885,-15.61027 0.0226,-6.31778 0.12481,-9.05122 0.35324,-9.46939 0.17663,-0.32333 0.32118,-0.80647 0.32118,-1.07394 0,-0.85751 1.89523,-4.35566 2.74925,-5.07427 0.71534,-0.60188 1.03651,-0.68416 2.40022,-0.61663 1.3938,0.0691 1.65554,-0.004 2.27823,-0.62553 0.95263,-0.95263 0.70401,-1.84421 -0.51568,-1.8493 -2.47413,-0.0106 -2.66146,-0.75554 -0.63448,-2.52373 2.31142,-2.0167 4.40524,-2.83007 5.21043,-2.02489 0.16055,0.16056 0.57871,0.2514 0.92885,0.20186 0.79823,-0.11298 0.9822,-1.07308 0.38164,-1.98964 -0.38924,-0.59403 -0.61302,-0.65762 -2.32766,-0.65762 -1.57442,0 -2.11124,0.12427 -3.15612,0.73015 -0.69248,0.40154 -1.38008,0.86253 -1.52811,1.02453 -0.14802,0.16202 -0.73212,0.63388 -1.29787,1.04818 -0.56576,0.41428 -1.10493,0.95132 -1.198,1.1938 -0.0931,0.24248 -0.75608,1.1684 -1.47345,2.05746 -0.71738,0.88908 -1.8699,2.79729 -2.56107,4.24057 -0.69118,1.44328 -1.34095,2.62414 -1.44401,2.62414 -0.10307,0 -0.2699,-0.51474 -0.3711,-1.14385 -0.1012,-0.62913 -0.35414,-1.41212 -0.56195,-1.73997 -0.20782,-0.32786 -0.37873,-0.87287 -0.37954,-1.21115 -9.1e-4,-0.33825 -0.19515,-0.97836 -0.43157,-1.42244 -0.94798,-1.7806 -2.24112,-6.12737 -2.25196,-7.57016 -0.006,-0.86761 -0.41474,-1.38215 -1.09602,-1.4151 z m 1.35044,93.368713 c 0.9425,0.0167 1.93094,0.10862 2.83441,0.27913 0.74014,0.13971 2.25406,0.38788 3.36427,0.55142 1.11021,0.16356 2.20961,0.46579 2.44331,0.67182 0.2337,0.20601 0.66388,0.37427 0.95566,0.37427 0.2918,0 0.66539,0.13551 0.83055,0.30069 0.38583,0.38582 1.16787,0.83167 3.17189,1.80881 1.82202,0.88839 4.38406,3.20457 5.10898,4.61905 0.4915,0.95907 0.79773,2.38842 1.11705,5.20937 0.20304,1.7938 -0.32333,6.63429 -0.85316,7.84403 -0.19449,0.44409 -0.43107,1.19287 -0.52568,1.66375 -0.0946,0.47085 -0.34572,1.00058 -0.55826,1.17697 -0.21252,0.17638 -0.38637,0.53699 -0.38637,0.80164 0,0.59759 -1.56387,2.59483 -3.88469,4.96179 -0.97214,0.99148 -1.77114,1.88362 -1.77623,1.98228 -0.0131,0.26576 -3.02031,2.11616 -4.49604,2.76661 -0.70491,0.31069 -1.62471,0.73406 -2.04379,0.94042 -0.41908,0.20633 -0.8954,0.3748 -1.05871,0.3748 -0.16331,0 -0.7896,0.22864 -1.39144,0.5078 -0.60184,0.27916 -1.63893,0.64963 -2.30506,0.82319 -0.66612,0.17356 -1.99838,0.53887 -2.96056,0.81163 -0.96218,0.27277 -1.99166,0.5697 -2.28772,0.66024 -1.37611,0.42101 -1.34311,0.81371 -1.31679,-15.71802 0.0222,-13.91325 0.066,-15.39149 0.46627,-15.6891 0.34603,-0.25726 0.48069,-1.01806 0.62082,-3.50673 l 0.17873,-3.1782 1.02399,-0.5225 c 0.71378,-0.36414 2.15773,-0.54323 3.72857,-0.51516 z" /><path
       id="path2019"
       style="fill:#6bb048;fill-opacity:1;stroke-width:1"
       d="m 22.050425,151.20051 c -0.76824,0.0139 -0.78937,0.79418 -0.51883,4.71806 0.3578,5.18934 1.00937,7.93383 2.51354,10.58333 0.37177,0.65484 0.79003,1.42876 0.92914,1.7198 0.21111,0.44163 2.16737,2.38395 3.72432,3.69744 1.01327,0.85483 4.75579,2.24506 6.06217,2.25206 0.96099,0.005 3.41329,-0.77152 5.05033,-1.59938 1.37363,-0.69465 1.48488,-0.71097 1.98438,-0.29404 0.29105,0.24293 0.84862,0.93268 1.23868,1.53272 0.39005,0.60003 0.98957,1.39347 1.33222,1.7632 0.34265,0.36972 0.79732,1.00996 1.01028,1.42265 0.21295,0.41269 0.44698,0.80984 0.52038,0.88264 0.0734,0.0728 0.49041,0.66806 0.92656,1.32291 0.48275,0.72481 0.76675,1.13806 1.00872,1.45831 l 1.32705,-1.99006 -0.31781,-2.71714 c -0.27506,0.88206 -1.0385,1.3518 -1.25057,0.68057 -0.51678,-1.63568 -2.56921,-4.71547 -4.47208,-6.70966 -3.31569,-3.47482 -6.20303,-6.21011 -8.14369,-7.71529 -1.32737,-1.02957 -1.56176,-1.32128 -1.28364,-1.59939 0.38864,-0.38865 2.86656,1.32603 5.07204,3.50986 2.0199,2.00005 4.25844,3.9703 4.51084,3.9703 0.14594,0 0.56669,-0.30158 0.93534,-0.67024 0.6582,-0.6582 0.66879,-0.73091 0.5793,-4.0349 l -0.09147,-3.36465 -0.97565,-1.45521 c -2.54273,-3.79205 -3.8292,-4.61623 -8.67338,-5.5578 -0.65484,-0.12728 -2.08359,-0.24163 -3.175,-0.25373 -1.0914,-0.0121 -2.46062,-0.14071 -3.0427,-0.28577 -1.03236,-0.25727 -4.70675,-0.96454 -6.40375,-1.23248 -0.14155,-0.0224 -0.26697,-0.0361 -0.37672,-0.0341 z" /></g></svg>
